<svg width="170" height="116" viewBox="0 0 170 116" fill="none" xmlns="http://www.w3.org/2000/svg">
<mask id="mask0_66_3707" style="mask-type:luminance" maskUnits="userSpaceOnUse" x="6" y="20" width="158" height="92">
<path d="M6.58594 20.8271H163.56V111.434H6.58594V20.8271Z" fill="white"/>
</mask>
<g mask="url(#mask0_66_3707)">
<mask id="mask1_66_3707" style="mask-type:luminance" maskUnits="userSpaceOnUse" x="-5" y="-20" width="179" height="149">
<path d="M32.4918 -19.9609L173.632 34.1613L136.96 128.674L-4.18359 74.5554L32.4918 -19.9609Z" fill="white"/>
</mask>
<g mask="url(#mask1_66_3707)">
<mask id="mask2_66_3707" style="mask-type:luminance" maskUnits="userSpaceOnUse" x="-5" y="-20" width="179" height="149">
<path d="M32.4918 -19.9609L173.632 34.1613L136.96 128.674L-4.18359 74.5554L32.4918 -19.9609Z" fill="white"/>
</mask>
<g mask="url(#mask2_66_3707)">
<mask id="mask3_66_3707" style="mask-type:luminance" maskUnits="userSpaceOnUse" x="7" y="20" width="156" height="91">
<path d="M161.751 55.6723C165.259 43.8221 159.265 31.0084 147.951 25.9682C139.212 22.0454 129.543 23.5005 122.501 28.7668C118.987 31.3722 114.131 31.1657 110.719 28.3933C108.091 26.2369 105.016 24.4213 101.666 23.1367C91.8421 19.368 81.3158 20.5609 72.8434 25.5323C67.938 28.4326 61.8458 28.2654 56.9239 25.4209C54.7843 24.1559 52.4272 23.1236 49.9646 22.3698C33.9824 17.4541 16.6617 25.4078 9.986 40.6301C2.3806 57.9204 10.8827 77.816 28.4077 84.5342C35.6637 87.3165 43.2724 87.3656 50.113 85.2715C57.0293 83.1447 64.4238 86.235 67.7039 92.655C71.5379 100.117 78.2236 106.186 86.9927 109.037C103.11 114.261 120.886 106.291 127.594 90.823C128.359 89.014 128.972 87.2739 129.437 85.4125C130.96 79.176 135.876 74.434 142.238 73.2411C151.139 71.6156 158.959 65.1826 161.751 55.6723Z" fill="white"/>
</mask>
<g mask="url(#mask3_66_3707)">
<path d="M23.4766 -36.9141L-30.3184 101.723L144.164 168.629L197.959 29.989L23.4766 -36.9141Z" fill="#00A1E0"/>
</g>
</g>
</g>
</g>
<mask id="mask4_66_3707" style="mask-type:luminance" maskUnits="userSpaceOnUse" x="53" y="8" width="17" height="16">
<path d="M53.8477 8.24316H69.0387V23.3443H53.8477V8.24316Z" fill="white"/>
</mask>
<g mask="url(#mask4_66_3707)">
<mask id="mask5_66_3707" style="mask-type:luminance" maskUnits="userSpaceOnUse" x="-5" y="-20" width="179" height="149">
<path d="M32.4918 -19.96L173.632 34.1622L136.96 128.675L-4.18359 74.5564L32.4918 -19.96Z" fill="white"/>
</mask>
<g mask="url(#mask5_66_3707)">
<mask id="mask6_66_3707" style="mask-type:luminance" maskUnits="userSpaceOnUse" x="-5" y="-20" width="179" height="149">
<path d="M32.4918 -19.96L173.632 34.1622L136.96 128.675L-4.18359 74.5564L32.4918 -19.96Z" fill="white"/>
</mask>
<g mask="url(#mask6_66_3707)">
<mask id="mask7_66_3707" style="mask-type:luminance" maskUnits="userSpaceOnUse" x="54" y="9" width="15" height="15">
<path d="M67.9377 18.681C67.7696 19.1169 67.5586 19.5298 67.3114 19.9198C67.0608 20.3131 66.774 20.6768 66.4509 21.0144C66.1279 21.3519 65.7784 21.6534 65.396 21.9221C65.0136 22.1876 64.6081 22.417 64.1796 22.6038C63.7543 22.7939 63.3125 22.9381 62.8543 23.0396C62.3994 23.1412 61.9378 23.1969 61.4697 23.2101C61.0016 23.2199 60.54 23.1871 60.0785 23.1085C59.617 23.0298 59.1686 22.9053 58.7335 22.7381C58.2983 22.571 57.8829 22.3613 57.4873 22.1155C57.0917 21.8664 56.7258 21.5813 56.3862 21.2602C56.05 20.939 55.7434 20.5883 55.4764 20.2115C55.206 19.8313 54.9786 19.4282 54.7874 19.0022C54.5995 18.5794 54.4511 18.1403 54.3489 17.6848C54.2467 17.2325 54.1907 16.7737 54.1775 16.3084C54.1676 15.843 54.2006 15.3842 54.283 14.9254C54.3621 14.4666 54.4841 14.0209 54.6522 13.5883C54.8236 13.1558 55.0313 12.7428 55.2819 12.3496C55.5324 11.9563 55.8159 11.5925 56.139 11.255C56.4621 10.9175 56.8148 10.616 57.1972 10.3505C57.5796 10.0818 57.9818 9.85238 58.4104 9.66558C58.839 9.47878 59.2807 9.33131 59.7357 9.22972C60.1906 9.12813 60.6521 9.07242 61.1202 9.05931C61.5884 9.04948 62.0532 9.08225 62.5114 9.16418C62.973 9.24283 63.4213 9.36408 63.8565 9.53122C64.2949 9.69835 64.7103 9.90809 65.1026 10.1572C65.4982 10.4062 65.8641 10.6881 66.2037 11.0092C66.5433 11.3304 66.8465 11.681 67.1169 12.0612C67.3839 12.4413 67.6147 12.8411 67.8026 13.2672C67.9938 13.6932 68.1388 14.1323 68.241 14.5846C68.3432 15.0368 68.3993 15.4956 68.4125 15.961C68.4224 16.4263 68.3894 16.8884 68.3103 17.344C68.2311 17.8028 68.1059 18.2484 67.9377 18.681Z" fill="white"/>
</mask>
<g mask="url(#mask7_66_3707)">
<path d="M56.0137 4.29102L49.3809 21.3847L66.5762 27.9783L73.2091 10.8846L56.0137 4.29102Z" fill="#00A1E0"/>
</g>
</g>
</g>
</g>
<mask id="mask8_66_3707" style="mask-type:luminance" maskUnits="userSpaceOnUse" x="99" y="7" width="10" height="10">
<path d="M99.4219 7.4043H108.705V16.6328H99.4219V7.4043Z" fill="white"/>
</mask>
<g mask="url(#mask8_66_3707)">
<mask id="mask9_66_3707" style="mask-type:luminance" maskUnits="userSpaceOnUse" x="-5" y="-20" width="179" height="149">
<path d="M32.4937 -19.96L173.634 34.1622L136.962 128.675L-4.18164 74.5564L32.4937 -19.96Z" fill="white"/>
</mask>
<g mask="url(#mask9_66_3707)">
<mask id="mask10_66_3707" style="mask-type:luminance" maskUnits="userSpaceOnUse" x="-5" y="-20" width="179" height="149">
<path d="M32.4937 -19.96L173.634 34.1622L136.962 128.675L-4.18164 74.5564L32.4937 -19.96Z" fill="white"/>
</mask>
<g mask="url(#mask10_66_3707)">
<mask id="mask11_66_3707" style="mask-type:luminance" maskUnits="userSpaceOnUse" x="100" y="7" width="9" height="10">
<path d="M108.415 13.677C108.313 13.9359 108.191 14.185 108.039 14.4177C107.891 14.6536 107.719 14.8699 107.528 15.0698C107.337 15.2697 107.126 15.45 106.899 15.6105C106.668 15.7711 106.427 15.9055 106.173 16.0202C105.919 16.1316 105.656 16.2168 105.382 16.2791C105.112 16.3381 104.835 16.3741 104.555 16.3807C104.278 16.3872 104.001 16.3676 103.727 16.3184C103.45 16.2725 103.183 16.1972 102.923 16.0988C102.662 15.9972 102.415 15.876 102.181 15.7252C101.944 15.5778 101.726 15.4074 101.522 15.2173C101.321 15.0272 101.139 14.8175 100.978 14.5914C100.819 14.3652 100.681 14.1227 100.569 13.8704C100.457 13.618 100.368 13.3559 100.309 13.0839C100.246 12.8151 100.213 12.5399 100.206 12.2613C100.2 11.986 100.22 11.7107 100.266 11.4387C100.315 11.1634 100.388 10.898 100.49 10.6391C100.589 10.3802 100.714 10.1344 100.862 9.90174C101.014 9.66579 101.182 9.4495 101.377 9.24631C101.568 9.04641 101.779 8.86616 102.006 8.70558C102.234 8.54828 102.474 8.41064 102.732 8.29922C102.985 8.18779 103.249 8.09931 103.519 8.04032C103.793 7.97806 104.07 7.94528 104.347 7.93873C104.627 7.93217 104.904 7.95184 105.178 7.99772C105.451 8.04688 105.722 8.11897 105.979 8.22056C106.239 8.31888 106.49 8.44341 106.724 8.59088C106.961 8.74163 107.179 8.90877 107.38 9.10212C107.581 9.29219 107.762 9.50193 107.924 9.72805C108.085 9.95418 108.22 10.1934 108.336 10.449C108.448 10.7014 108.534 10.9635 108.596 11.2355C108.656 11.5043 108.692 11.7796 108.699 12.0548C108.705 12.3334 108.685 12.6087 108.636 12.8807C108.59 13.1527 108.514 13.4214 108.415 13.677Z" fill="white"/>
</mask>
<g mask="url(#mask11_66_3707)">
<path d="M101.301 5.09082L97.3418 15.2926L107.604 19.2252L111.56 9.02668L101.301 5.09082Z" fill="#00A1E0"/>
</g>
</g>
</g>
</g>
<mask id="mask12_66_3707" style="mask-type:luminance" maskUnits="userSpaceOnUse" x="137" y="82" width="15" height="15">
<path d="M137.398 82.0713H151.746V96.3335H137.398V82.0713Z" fill="white"/>
</mask>
<g mask="url(#mask12_66_3707)">
<mask id="mask13_66_3707" style="mask-type:luminance" maskUnits="userSpaceOnUse" x="-5" y="-20" width="179" height="149">
<path d="M32.4918 -19.96L173.632 34.1622L136.96 128.675L-4.18359 74.5564L32.4918 -19.96Z" fill="white"/>
</mask>
<g mask="url(#mask13_66_3707)">
<mask id="mask14_66_3707" style="mask-type:luminance" maskUnits="userSpaceOnUse" x="-5" y="-20" width="179" height="149">
<path d="M32.4918 -19.96L173.632 34.1622L136.96 128.675L-4.18359 74.5564L32.4918 -19.96Z" fill="white"/>
</mask>
<g mask="url(#mask14_66_3707)">
<mask id="mask15_66_3707" style="mask-type:luminance" maskUnits="userSpaceOnUse" x="138" y="82" width="14" height="14">
<path d="M151.162 91.3879C151.004 91.7942 150.809 92.1842 150.572 92.5513C150.338 92.9216 150.067 93.2657 149.764 93.5803C149.461 93.8982 149.131 94.1833 148.769 94.4356C148.409 94.688 148.03 94.901 147.628 95.078C147.226 95.2549 146.81 95.3926 146.378 95.4876C145.95 95.5826 145.515 95.6383 145.076 95.6482C144.638 95.658 144.199 95.6252 143.768 95.5531C143.332 95.4778 142.91 95.3598 142.502 95.2025C142.09 95.0452 141.701 94.8518 141.328 94.6159C140.955 94.3832 140.609 94.1145 140.293 93.813C139.973 93.5115 139.686 93.1805 139.436 92.8233C139.182 92.4661 138.964 92.0892 138.786 91.6894C138.608 91.2896 138.47 90.8766 138.374 90.4473C138.279 90.0213 138.226 89.5887 138.213 89.1529C138.203 88.717 138.236 88.2811 138.312 87.8518C138.387 87.4192 138.503 86.9998 138.661 86.5934C138.819 86.1838 139.017 85.7971 139.251 85.4267C139.485 85.0564 139.755 84.7123 140.059 84.3977C140.362 84.0798 140.695 83.7947 141.054 83.5424C141.414 83.2933 141.796 83.077 142.198 82.9001C142.601 82.7231 143.016 82.5854 143.444 82.4904C143.873 82.3954 144.308 82.3429 144.747 82.3298C145.188 82.32 145.624 82.3528 146.059 82.4281C146.491 82.5002 146.913 82.6182 147.325 82.7755C147.733 82.9328 148.126 83.1295 148.495 83.3621C148.867 83.5948 149.214 83.8635 149.533 84.165C149.85 84.4665 150.137 84.7975 150.391 85.1547C150.644 85.5119 150.859 85.8888 151.037 86.2886C151.215 86.6884 151.353 87.1046 151.449 87.5307C151.544 87.9567 151.6 88.3893 151.61 88.8251C151.62 89.2643 151.587 89.6969 151.515 90.1295C151.439 90.5588 151.32 90.9782 151.162 91.3879Z" fill="white"/>
</mask>
<g mask="url(#mask15_66_3707)">
<path d="M139.94 77.8398L133.699 93.9307L149.883 100.138L156.126 84.0468L139.94 77.8398Z" fill="#00A1E0"/>
</g>
</g>
</g>
</g>
<path d="M40.5697 70.3601C38.75 70.8058 37.1214 70.8845 35.6907 70.5961C34.2665 70.3011 33.0204 69.7637 31.9588 68.9837C30.894 68.207 29.971 67.2731 29.1897 66.1785C28.4182 65.0872 27.7721 63.9566 27.2512 62.7834C26.7336 61.6134 26.3117 60.4992 25.9853 59.4407C25.6622 58.3756 25.4249 57.494 25.2732 56.7927C25.0194 55.6326 24.8908 54.289 24.8908 52.7684C24.8842 51.2478 25.0556 49.6747 25.4051 48.0493C25.7479 46.4172 26.3249 44.8442 27.1325 43.3302C27.9336 41.8194 29.0248 40.4987 30.416 39.3714C31.8138 38.2375 33.5676 37.4116 35.6775 36.8938C36.2049 36.7628 36.8016 36.73 37.4709 36.789C38.1467 36.8512 38.7533 37.1003 39.2906 37.5362C39.8247 37.9753 40.1115 38.6733 40.1478 39.6335C40.1906 40.6757 40.006 41.4491 39.5939 41.9538C39.1785 42.4617 38.6577 42.7927 38.0247 42.95C37.9093 42.9762 37.7808 43.0025 37.6423 43.0287C37.5104 43.0483 37.3654 43.0549 37.2071 43.0549C36.7588 43.0811 36.3137 43.1466 35.8753 43.2515C34.6258 43.5596 33.561 44.1626 32.6841 45.0605C31.8039 45.9617 31.2138 47.0727 30.9171 48.3901C30.6171 49.701 30.683 51.1265 31.1149 52.6635C31.6753 54.5446 32.5918 55.7244 33.8577 56.2028C35.1302 56.6846 36.9599 56.7108 39.3434 56.2815C41.3016 55.9243 42.8543 56.0324 43.9983 56.6092C45.1389 57.1794 45.9499 58.038 46.4246 59.1916C46.9059 60.3451 47.1499 61.6232 47.1499 63.0193C47.1499 64.671 46.596 66.1752 45.4883 67.5287C44.3807 68.8854 42.7389 69.8292 40.5697 70.3601Z" fill="#FCFDF2"/>
<path d="M48.7538 66.9392C47.9626 65.9528 47.5274 64.8288 47.4483 63.5703C47.3692 62.3053 47.4813 60.9683 47.7912 59.5591C48.1077 58.1434 48.5164 56.7276 49.0175 55.3119C49.5252 53.8962 49.9868 52.5394 50.4021 51.2351C50.8241 49.9243 51.0681 48.7674 51.1406 47.7613C51.1999 46.9683 51.1736 45.9982 51.0615 44.8512C50.9461 43.7075 50.8571 42.5408 50.7977 41.3512C50.745 40.1649 50.8142 39.0638 51.0087 38.0479C51.1999 37.0254 51.6417 36.2192 52.3274 35.6228C52.5713 35.3966 52.868 35.2164 53.2109 35.0853C53.5603 34.9542 53.9757 34.8985 54.4504 34.9149C54.7834 34.9346 55.1427 34.9903 55.5317 35.0853C56.2504 35.2688 56.7713 35.6883 57.0878 36.3437C57.4042 36.9926 57.5889 37.7791 57.6416 38.7033C57.6943 39.6209 57.6581 40.5975 57.5361 41.6265C57.4207 42.6588 57.2987 43.6583 57.1669 44.6284C57.0416 45.5919 56.9493 46.4046 56.89 47.0666C56.8174 48.0465 56.7845 49.1607 56.7845 50.4093C56.7911 51.6612 56.8834 52.8606 57.0614 54.0142C57.2361 55.1612 57.5163 56.1214 57.9053 56.898C58.291 57.6682 58.8284 58.0647 59.5141 58.0909C59.6361 58.1008 59.8174 58.0778 60.0548 58.0254C61.1163 57.7468 62.158 57.5109 63.18 57.3175C64.1987 57.1274 65.1448 57.0488 66.0151 57.0816C67.1492 57.1274 68.125 57.4224 68.9426 57.973C69.7667 58.5235 70.3601 59.4903 70.7227 60.87C70.9601 61.7024 71.0326 62.6003 70.9469 63.5703C70.8579 64.5338 70.6304 65.4383 70.2612 66.2838C69.8986 67.1228 69.3909 67.8044 68.7316 68.3288C68.0722 68.8531 67.2678 69.0923 66.3184 69.0497C66.2821 69.0497 66.2558 69.0497 66.2393 69.0497C66.2294 69.0497 66.2129 69.0497 66.1865 69.0497C65.7909 69.0301 65.28 69.0104 64.6569 68.9842C64.0305 68.958 63.3316 68.9252 62.5602 68.8924C61.0372 68.8302 59.3723 68.7613 57.5625 68.6827C55.7592 68.6106 54.1208 68.5451 52.6439 68.4861C51.7208 68.4402 50.9197 68.2763 50.2439 67.9879C49.5747 67.693 49.0769 67.3423 48.7538 66.9392Z" fill="#FCFDF2"/>
<path d="M72.9744 60.131C73.2019 56.4606 73.8481 53.3505 74.9129 50.7976C75.9744 48.248 77.3722 46.3243 79.1062 45.0298C80.8469 43.7288 82.8282 43.1488 85.0534 43.2864C86.8204 43.4011 88.3665 43.9353 89.6951 44.8856C91.0302 45.8295 92.1412 47.0682 93.0313 48.5954C93.9181 50.116 94.6038 51.8398 95.0884 53.7602C95.5796 55.6839 95.8467 57.6633 95.8928 59.6984C95.9456 62.0317 95.7115 64.3388 95.1939 66.6197C94.6731 68.9006 93.8687 70.9456 92.7808 72.7546C91.6995 74.5635 90.3281 75.9858 88.6665 77.0149C87.005 78.0373 85.0534 78.4765 82.8117 78.3388C81.193 78.234 79.7458 77.6244 78.4733 76.5167C77.1975 75.4091 76.126 73.9737 75.2557 72.2171C74.3854 70.454 73.7524 68.5172 73.3568 66.41C72.9678 64.3061 72.8426 62.212 72.9744 60.131ZM84.6842 49.0018C84.1106 48.969 83.5831 49.2475 83.1018 49.8407C82.6271 50.4371 82.2315 51.2237 81.915 52.2003C81.5985 53.1801 81.3875 54.2321 81.282 55.3594C81.1765 56.4868 81.2095 57.5551 81.3875 58.5579C81.5622 59.564 81.9051 60.3997 82.4161 61.0617C82.9336 61.7171 83.649 62.0776 84.5655 62.1366C85.3831 62.189 86.0226 61.9203 86.4907 61.3238C86.9556 60.7209 87.2852 59.9311 87.4797 58.9512C87.6709 57.9648 87.7468 56.903 87.7039 55.7658C87.6578 54.6319 87.5061 53.557 87.2424 52.5411C86.9852 51.5186 86.6391 50.6862 86.2006 50.0373C85.7688 49.3819 85.2644 49.0378 84.6842 49.0018Z" fill="#FCFDF2"/>
<path d="M96.862 70.0395C96.3445 68.0405 96.0774 66.0938 96.0576 64.2062C96.0412 62.3185 96.1104 60.4932 96.2686 58.7268C96.4269 56.9538 96.506 55.2399 96.506 53.5882C96.4994 51.93 96.2554 50.3635 95.7807 48.8953C95.3258 47.4632 95.1214 46.1261 95.1741 44.8841C95.2269 43.6355 95.5401 42.5966 96.1104 41.7642C96.684 40.9351 97.5082 40.4501 98.5895 40.3092C98.9851 40.2502 99.4499 40.2699 99.9873 40.3747C100.531 40.4796 101.082 40.7876 101.636 41.2923C102.189 41.7904 102.615 42.6622 102.915 43.9009C103.205 45.0283 103.455 46.2998 103.666 47.7155C103.877 49.1313 104.095 50.5732 104.326 52.0414C104.563 53.5096 104.83 54.8565 105.13 56.0788C105.437 57.2947 105.803 58.268 106.225 59.0021C106.647 59.7296 107.177 60.0475 107.82 59.959C108.618 59.8476 109.152 59.2446 109.416 58.15C109.686 57.0587 109.778 55.6954 109.693 54.0601C109.604 52.4183 109.419 50.6978 109.139 48.8953C108.855 47.0962 108.578 45.4346 108.308 43.914C108.176 43.1537 108.156 42.3902 108.255 41.62C108.361 40.8532 108.638 40.1912 109.086 39.6406C109.541 39.0835 110.246 38.7427 111.196 38.6182C112.198 38.4871 113.009 38.782 113.635 39.4964C114.268 40.2141 114.769 41.1186 115.139 42.2099C115.515 43.2947 115.801 44.386 115.996 45.4871C116.197 46.5816 116.358 47.4599 116.484 48.1219C116.879 50.0456 117.341 51.8775 117.868 53.6144C118.402 55.3448 118.884 57.0325 119.306 58.6743C119.728 60.3195 120.034 61.9777 120.229 63.6556C120.42 65.3335 120.387 67.0966 120.123 68.9384C119.876 70.6949 119.385 72.1172 118.646 73.1987C117.908 74.2834 117.057 75.106 116.101 75.6631C115.152 76.2137 114.202 76.6069 113.253 76.8429C112.31 77.0723 111.506 77.2296 110.84 77.3148L108.057 77.6818C106.818 77.849 105.437 77.7474 103.917 77.3803C102.394 77.0067 100.989 76.2399 99.6972 75.0863C98.4049 73.9328 97.4587 72.2516 96.862 70.0395Z" fill="#FCFDF2"/>
<path d="M129.76 73.3892C128.178 73.8971 126.925 73.9594 126.002 73.5727C125.079 73.1893 124.387 72.5764 123.919 71.7375C123.454 70.892 123.177 69.9809 123.088 69.0109C123.002 68.0409 123.032 67.2478 123.18 66.6251C123.259 66.2417 123.371 65.6879 123.51 64.9603C123.652 64.2361 123.678 63.2693 123.589 62.0633C123.503 60.8573 123.177 59.3433 122.613 57.5146C122.053 55.6893 121.097 53.4969 119.752 50.9341C119.402 50.2361 118.944 49.4201 118.38 48.4828C117.82 47.5488 117.266 46.5624 116.719 45.5203C116.175 44.4814 115.75 43.4622 115.44 42.466C115.123 41.4631 115.024 40.539 115.136 39.7C115.252 38.8545 115.687 38.1762 116.442 37.6682C116.795 37.4421 117.147 37.2684 117.497 37.1439C118.044 36.9538 118.571 36.8555 119.079 36.8555C119.58 36.8555 119.92 36.9013 120.095 36.9866C120.49 36.6719 120.952 36.3442 121.479 36.0034C122 35.6626 122.597 35.3742 123.272 35.1382C123.325 35.112 123.404 35.0858 123.51 35.0596C123.609 35.0268 123.681 34.994 123.734 34.9678C125.026 34.627 126.45 34.6532 128.006 35.0465C129.563 35.4332 131.158 36.1869 132.793 37.3143C134.428 38.4416 135.991 39.9557 137.488 41.8499C138.981 43.7375 140.287 46.0249 141.404 48.7057C142.274 50.7703 142.911 52.9004 143.316 55.1027C143.728 57.2984 143.824 59.3892 143.606 61.3817C143.385 63.3676 142.736 65.1013 141.655 66.5858C140.563 68.0736 139.327 69.2337 137.949 70.0727C136.568 70.9051 135.042 71.613 133.373 72.1963C133.284 72.2225 133.192 72.2553 133.097 72.2881C132.998 72.3241 132.902 72.3602 132.806 72.3929C132.216 72.5601 131.705 72.7174 131.277 72.8648C130.845 73.0156 130.341 73.1893 129.76 73.3892ZM126.859 42.1251C126.332 42.2923 126.015 42.7281 125.91 43.436C125.804 44.1439 125.874 45.0057 126.121 46.0184C126.365 47.0245 126.718 48.0502 127.176 49.0989C127.631 50.1476 128.142 51.1144 128.705 51.9959C129.266 52.8709 129.846 53.5427 130.446 54.0146C131.043 54.4866 131.583 54.6406 132.068 54.4734C132.559 54.2637 132.859 53.8049 132.965 53.097C133.077 52.3826 133.044 51.5076 132.859 50.4753C132.681 49.4463 132.398 48.4304 132.002 47.4341C131.633 46.3854 131.165 45.4219 130.604 44.5371C130.05 43.6556 129.447 42.9772 128.798 42.5053C128.145 42.0334 127.499 41.9088 126.859 42.1251Z" fill="#FCFDF2"/>
<path d="M87.6215 96.56C87.2588 96.4355 86.9555 96.2586 86.7116 96.0226C86.4643 95.7932 86.2962 95.5376 86.2105 95.2492C86.1215 94.9608 86.1248 94.6691 86.2237 94.3709L87.0017 94.6462C86.9391 94.9084 86.9687 95.164 87.094 95.4065C87.2259 95.6523 87.4698 95.8325 87.8324 95.9571C88.1753 96.0783 88.472 96.0881 88.7291 95.9833C88.983 95.885 89.1577 95.7014 89.2566 95.4327C89.3357 95.2164 89.339 95.0198 89.2698 94.8428C89.2072 94.6691 89.0984 94.5217 88.9401 94.3971C88.7885 94.2759 88.5775 94.1186 88.3072 93.9252C87.9808 93.7089 87.7204 93.5123 87.5292 93.3353C87.3445 93.1616 87.2061 92.9486 87.1204 92.693C87.0413 92.4308 87.061 92.1359 87.1863 91.8016C87.2918 91.4968 87.4566 91.2576 87.6874 91.0806C87.9248 90.8971 88.205 90.7923 88.5313 90.766C88.8544 90.7333 89.1973 90.7792 89.5599 90.9102C90.0874 91.0938 90.4698 91.3756 90.7071 91.7492C90.9445 92.1162 91.0104 92.5226 90.9049 92.9683L90.1137 92.693C90.1566 92.4669 90.1071 92.2408 89.9687 92.0114C89.8269 91.7852 89.5929 91.6148 89.2698 91.5001C88.9698 91.3953 88.6962 91.392 88.4522 91.487C88.205 91.5755 88.0302 91.759 87.9248 92.0376C87.8522 92.2309 87.8522 92.4145 87.9248 92.5881C87.994 92.7553 88.0995 92.8995 88.2412 93.0207C88.3896 93.1453 88.6006 93.296 88.8742 93.4795C89.1973 93.7089 89.4577 93.9121 89.6522 94.0956C89.8434 94.2726 89.9819 94.4856 90.061 94.738C90.1467 94.9936 90.1302 95.2951 90.0082 95.6424C89.9093 95.9112 89.7478 96.1439 89.5203 96.3372C89.2995 96.5273 89.0225 96.6453 88.6896 96.6911C88.3632 96.7337 88.0072 96.6911 87.6215 96.56Z" fill="#FCFDF2"/>
<path d="M96.0504 92.2793L93.6636 95.6351L93.3735 97.8243L92.6218 97.7325L92.912 95.5434L91.4746 91.6895L92.3186 91.7943L93.3735 94.9142L95.1932 92.1745L96.0504 92.2793Z" fill="#FCFDF2"/>
<path d="M101.376 97.6507L100.611 97.7294L97.0905 93.4035L97.5389 98.0309L96.7741 98.0964L96.207 92.2631L96.9719 92.1975L100.493 96.5234L100.044 91.896L100.809 91.8174L101.376 97.6507Z" fill="#FCFDF2"/>
<path d="M102.118 94.5793C101.917 94.0386 101.854 93.5143 101.934 93.0063C102.013 92.4918 102.22 92.0363 102.553 91.643C102.876 91.2432 103.295 90.9483 103.806 90.7647C104.413 90.5386 104.993 90.4862 105.547 90.6074C106.107 90.732 106.588 91.0138 106.984 91.4595L106.127 91.7872C105.853 91.5185 105.537 91.3415 105.177 91.2629C104.825 91.1842 104.446 91.2235 104.043 91.3808C103.664 91.5218 103.351 91.7413 103.107 92.0363C102.87 92.3345 102.725 92.6786 102.672 93.0719C102.619 93.4651 102.679 93.8813 102.843 94.3172C103.008 94.7563 103.242 95.1037 103.542 95.3659C103.839 95.628 104.175 95.7919 104.545 95.8509C104.92 95.9131 105.299 95.8738 105.679 95.7329C106.081 95.5756 106.394 95.3593 106.615 95.0775C106.842 94.7989 106.971 94.4679 106.997 94.0812L107.854 93.7535C107.844 94.3565 107.67 94.8874 107.327 95.3396C106.984 95.7952 106.509 96.136 105.903 96.3621C105.392 96.5456 104.881 96.5981 104.373 96.5194C103.872 96.4342 103.417 96.2245 103.015 95.8902C102.619 95.5494 102.323 95.1135 102.118 94.5793Z" fill="#FCFDF2"/>
</svg>
