<svg width="206" height="92" viewBox="0 0 206 92" fill="none" xmlns="http://www.w3.org/2000/svg">
<mask id="mask0_66_5381" style="mask-type:luminance" maskUnits="userSpaceOnUse" x="128" y="14" width="61" height="62">
<path d="M128.051 14.4268H188.242V75.1736H128.051V14.4268Z" fill="white"/>
</mask>
<g mask="url(#mask0_66_5381)">
<mask id="mask1_66_5381" style="mask-type:luminance" maskUnits="userSpaceOnUse" x="128" y="14" width="61" height="62">
<path d="M158.146 14.4268C141.526 14.4268 128.051 28.0265 128.051 44.8002C128.051 61.5739 141.526 75.1736 158.146 75.1736C174.767 75.1736 188.242 61.5739 188.242 44.8002C188.242 28.0265 174.767 14.4268 158.146 14.4268Z" fill="white"/>
</mask>
<g mask="url(#mask1_66_5381)">
<path d="M128.051 14.4268H188.242V75.1736H128.051V14.4268Z" fill="url(#paint0_linear_66_5381)"/>
</g>
</g>
<path d="M35.0831 61.2722C32.0954 61.2722 29.4767 60.6438 27.227 59.3807C24.9742 58.1111 23.222 56.3233 21.964 54.0173C20.7124 51.7048 20.0898 49.0101 20.0898 45.9332C20.0898 42.9535 20.706 40.3463 21.9383 38.1083C23.1771 35.8735 24.9229 34.1246 27.1757 32.8614C29.4253 31.5918 32.0601 30.957 35.0831 30.957C38.7031 30.957 41.7742 31.8898 44.2999 33.7554C46.8223 35.6144 48.459 38.1148 49.2035 41.2564H39.8584C39.1138 38.9342 37.5221 37.7715 35.0831 37.7715C33.1833 37.7715 31.6718 38.5034 30.5518 39.9609C29.4382 41.4119 28.883 43.4037 28.883 45.9332C28.883 48.5696 29.4382 50.636 30.5518 52.1388C31.6718 53.6416 33.1833 54.393 35.0831 54.393C36.5369 54.393 37.644 54.0626 38.4078 53.3954C39.1684 52.7315 39.6851 51.7987 39.9611 50.5971H49.2548C48.5424 53.9492 46.9089 56.5662 44.3512 58.4479C41.7903 60.3329 38.7031 61.2722 35.0831 61.2722Z" fill="#1A2423"/>
<path d="M59.266 70.704H54.1313V63.6823H57.5844C58.3032 63.6823 58.9579 63.5592 59.5484 63.3196C60.1389 63.0766 60.6042 62.5293 60.9476 61.6742L61.1915 61.0654L50.9863 31.5664H60.1261L65.5688 52.1911L70.2414 31.5664H79.4453L69.2273 62.5034C68.2774 65.4053 67.0739 67.4944 65.6202 68.7737C64.1632 70.0595 62.0451 70.704 59.266 70.704Z" fill="#1A2423"/>
<path d="M98.6019 61.2721C97.0776 61.2721 95.7137 61.0163 94.507 60.5078C93.3068 59.9896 92.2157 58.9985 91.2337 57.5281V60.6503H82.6973V21.5127H91.2337V34.7011C92.2157 33.2339 93.3068 32.2461 94.507 31.7343C95.7137 31.2161 97.0776 30.957 98.6019 30.957C101.073 30.957 103.249 31.6015 105.123 32.8873C107.004 34.1667 108.48 35.9415 109.552 38.2119C110.62 40.4856 111.156 43.109 111.156 46.0887C111.156 49.0619 110.62 51.6853 109.552 53.9654C108.48 56.2391 107.004 58.0269 105.123 59.3289C103.249 60.6244 101.073 61.2721 98.6019 61.2721ZM96.2143 53.9266C98.1141 53.9266 99.6353 53.1946 100.784 51.7242C101.939 50.257 102.517 48.3785 102.517 46.0887C102.517 43.7924 101.939 41.9171 100.784 40.4661C99.6353 39.0151 98.1141 38.2897 96.2143 38.2897C94.3466 38.2897 92.8286 39.0087 91.6573 40.4402C90.4924 41.875 89.9115 43.7567 89.9115 46.0887C89.9115 48.4465 90.4924 50.3445 91.6573 51.776C92.8286 53.2108 94.3466 53.9266 96.2143 53.9266Z" fill="#1A2423"/>
<path d="M129.552 61.2722C126.497 61.2722 123.843 60.6244 121.594 59.3289C119.341 58.0269 117.595 56.2553 116.356 54.0173C115.124 51.7728 114.508 49.2109 114.508 46.3348C114.508 44.4952 114.784 42.6685 115.342 40.8548C115.897 39.0411 116.773 37.3828 117.974 35.88C119.18 34.3772 120.714 33.1821 122.582 32.2914C124.447 31.404 126.683 30.957 129.296 30.957C131.186 30.957 133.022 31.2388 134.803 31.7991C136.581 32.3627 138.172 33.2598 139.578 34.4938C140.99 35.7213 142.11 37.318 142.941 39.2872C143.769 41.2564 144.186 43.6402 144.186 46.4385V47.9283H123.442C123.68 49.5024 124.174 50.7493 124.918 51.6724C125.535 52.4238 126.269 52.9808 127.126 53.3436C127.99 53.6999 128.949 53.8747 130.002 53.8747C131.292 53.8747 132.383 53.5509 133.275 52.9031C134.174 52.2554 134.793 51.4878 135.136 50.5971H143.724C143.185 52.5145 142.319 54.2861 141.131 55.9087C139.95 57.5346 138.4 58.8333 136.484 59.8082C134.565 60.7831 132.255 61.2722 129.552 61.2722ZM123.699 41.8264H135.547C135.477 41.4831 135.348 41.0718 135.162 40.5957C134.973 40.1228 134.642 39.6597 134.174 39.2095C133.564 38.5974 132.868 38.1601 132.081 37.901C131.301 37.6419 130.477 37.5124 129.604 37.5124C128.757 37.5124 127.929 37.6419 127.126 37.901C126.33 38.1601 125.628 38.5974 125.021 39.2095C124.549 39.6953 124.228 40.1649 124.058 40.6216C123.885 41.0815 123.766 41.4831 123.699 41.8264Z" fill="#1A2423"/>
<path d="M157.142 60.6503H148.605V31.5659H157.142V34.7011C158.124 33.2339 159.215 32.2461 160.415 31.7343C161.622 31.2161 162.986 30.957 164.51 30.957H165.781V39.1577H164.151C162.97 39.1577 161.988 39.2969 161.211 39.5722C160.431 39.8508 159.786 40.2265 159.273 40.6993C158.528 41.4183 157.983 42.3835 157.643 43.6013C157.309 44.8126 157.142 46.4093 157.142 48.3947V60.6503Z" fill="#1A2423"/>
<path d="M175.931 58.9707V60.046H168.602V58.9707H171.323C171.008 58.731 170.79 58.4881 170.668 58.2452C170.54 58.0055 170.476 57.7367 170.476 57.442C170.476 56.9853 170.562 56.6323 170.732 56.3797C170.896 56.1205 171.098 55.9327 171.336 55.8096C171.576 55.6801 171.82 55.6088 172.067 55.5894C172.318 55.5732 172.552 55.5635 172.773 55.5635H175.931V56.6258H172.773C172.228 56.6258 171.846 56.7262 171.631 56.9238C171.451 57.0792 171.361 57.3319 171.361 57.6752C171.361 57.876 171.397 58.0509 171.464 58.2063C171.525 58.3553 171.615 58.4784 171.734 58.582C171.888 58.7213 172.093 58.8217 172.35 58.88C172.607 58.9415 172.966 58.9707 173.428 58.9707H175.931Z" fill="#1A2423"/>
<path d="M176.035 51.8395C176.035 52.3674 175.919 52.837 175.688 53.2516C175.451 53.6597 175.12 53.9771 174.7 54.2103C174.273 54.437 173.785 54.5471 173.236 54.5471C172.697 54.5471 172.222 54.437 171.812 54.2103C171.394 53.9771 171.067 53.6597 170.836 53.2516C170.599 52.837 170.477 52.3674 170.477 51.8395C170.477 51.3051 170.599 50.8354 170.836 50.4274C171.067 50.0225 171.394 49.7083 171.812 49.4816C172.222 49.2484 172.697 49.1318 173.236 49.1318C173.776 49.1318 174.26 49.2452 174.687 49.4687C175.107 49.6954 175.438 50.0128 175.675 50.4274C175.916 50.8354 176.035 51.3051 176.035 51.8395ZM175.111 51.8395C175.111 51.5221 175.03 51.2403 174.867 50.9974C174.706 50.7577 174.482 50.5666 174.199 50.4274C173.917 50.2913 173.596 50.2201 173.236 50.2201C172.877 50.2201 172.563 50.2913 172.287 50.4274C172.014 50.5666 171.796 50.7577 171.632 50.9974C171.471 51.2403 171.388 51.5221 171.388 51.8395C171.388 52.1504 171.471 52.4322 171.632 52.6816C171.786 52.9245 172.004 53.1156 172.287 53.2516C172.563 53.3909 172.877 53.4589 173.236 53.4589C173.606 53.4589 173.93 53.3909 174.212 53.2516C174.494 53.1058 174.719 52.9115 174.88 52.6686C175.034 52.4289 175.111 52.1504 175.111 51.8395Z" fill="#1A2423"/>
<path d="M175.932 46.9941V48.0693H170.579V46.9941H171.26C170.971 46.7706 170.769 46.5244 170.656 46.2556C170.538 45.99 170.477 45.6856 170.477 45.3488V45.2451H171.503V45.5301C171.503 45.9641 171.625 46.301 171.863 46.5406C172.011 46.6896 172.197 46.7997 172.428 46.8775C172.659 46.9552 172.948 46.9941 173.288 46.9941H175.932Z" fill="#1A2423"/>
<path d="M169.821 43.8688C169.821 44.0696 169.757 44.2412 169.629 44.387C169.5 44.5263 169.343 44.5943 169.154 44.5943C168.958 44.5943 168.801 44.5263 168.679 44.387C168.551 44.2412 168.486 44.0696 168.486 43.8688C168.486 43.6712 168.551 43.5028 168.679 43.3635C168.801 43.2275 168.958 43.1562 169.154 43.1562C169.343 43.1562 169.5 43.2275 169.629 43.3635C169.757 43.5028 169.821 43.6712 169.821 43.8688ZM175.932 43.3376V44.4129H170.579V43.3376H175.932Z" fill="#1A2423"/>
<path d="M175.933 37.7766V42.3757H175.15L171.466 39.0851V42.2073H170.58V37.7637H171.427L175.047 40.9766V37.7766H175.933Z" fill="#1A2423"/>
<path d="M176.035 34.3014C176.035 34.8293 175.919 35.2989 175.688 35.7135C175.451 36.1216 175.12 36.439 174.7 36.6722C174.273 36.8989 173.785 37.009 173.236 37.009C172.697 37.009 172.222 36.8989 171.812 36.6722C171.394 36.439 171.067 36.1216 170.836 35.7135C170.599 35.2989 170.477 34.8293 170.477 34.3014C170.477 33.767 170.599 33.2974 170.836 32.8893C171.067 32.4844 171.394 32.1703 171.812 31.9435C172.222 31.7103 172.697 31.5938 173.236 31.5938C173.776 31.5938 174.26 31.7071 174.687 31.9306C175.107 32.1573 175.438 32.4747 175.675 32.8893C175.916 33.2974 176.035 33.767 176.035 34.3014ZM175.111 34.3014C175.111 33.984 175.03 33.7022 174.867 33.4593C174.706 33.2196 174.482 33.0285 174.199 32.8893C173.917 32.7532 173.596 32.682 173.236 32.682C172.877 32.682 172.563 32.7532 172.287 32.8893C172.014 33.0285 171.796 33.2196 171.632 33.4593C171.471 33.7022 171.388 33.984 171.388 34.3014C171.388 34.6123 171.471 34.8941 171.632 35.1435C171.786 35.3864 172.004 35.5775 172.287 35.7135C172.563 35.8528 172.877 35.9208 173.236 35.9208C173.606 35.9208 173.93 35.8528 174.212 35.7135C174.494 35.5678 174.719 35.3734 174.88 35.1305C175.034 34.8908 175.111 34.6123 175.111 34.3014Z" fill="#1A2423"/>
<path d="M175.932 29.456V30.5313H170.579V29.456H171.324C171.009 29.2164 170.791 28.9735 170.669 28.7306C170.541 28.4909 170.477 28.2221 170.477 27.9273C170.477 27.4707 170.563 27.1112 170.733 26.852C170.897 26.5929 171.099 26.4051 171.337 26.282C171.577 26.1622 171.821 26.0942 172.068 26.0747C172.319 26.0585 172.553 26.0488 172.774 26.0488H175.932V27.1112H172.774C172.229 27.1112 171.847 27.2083 171.632 27.3962C171.452 27.5711 171.362 27.8204 171.362 28.1476C171.362 28.3484 171.398 28.5233 171.465 28.6787C171.526 28.8277 171.616 28.9508 171.735 29.0544C171.889 29.2034 172.094 29.3071 172.351 29.3654C172.607 29.4269 172.967 29.456 173.429 29.456H175.932Z" fill="#1A2423"/>
<defs>
<linearGradient id="paint0_linear_66_5381" x1="132.152" y1="47.4206" x2="186.99" y2="47.4206" gradientUnits="userSpaceOnUse">
<stop stop-color="#F48120"/>
<stop offset="1" stop-color="#FAAD3F"/>
</linearGradient>
</defs>
</svg>
