<svg width="140" height="107" viewBox="0 0 140 107" fill="none" xmlns="http://www.w3.org/2000/svg">
<path d="M16.3645 89.6392C14.2391 89.6392 12.1461 89.3969 10.0883 88.9177C8.02771 88.4384 6.37223 87.8058 5.11914 87.0223L7.78735 80.9487C8.94592 81.6675 10.3205 82.2382 11.9139 82.6609C13.5127 83.0782 15.0898 83.2855 16.6454 83.2855C18.0848 83.2855 19.1083 83.1401 19.7133 82.844C20.3236 82.5505 20.6315 82.1198 20.6315 81.5517C20.6315 80.9917 20.2642 80.5987 19.5296 80.3671C18.7951 80.1302 17.6311 79.9041 16.0404 79.6887C14.0096 79.4383 12.2812 79.1126 10.8553 78.7087C9.43473 78.2995 8.21135 77.5538 7.18241 76.4688C6.15078 75.3784 5.63766 73.8493 5.63766 71.8812C5.63766 70.2659 6.11837 68.8282 7.08519 67.5629C8.05741 66.3002 9.47254 65.3014 11.3306 64.5691C13.1886 63.8368 15.4139 63.4707 18.0065 63.4707C19.8483 63.4707 21.6793 63.6592 23.4941 64.0307C25.309 64.4049 26.824 64.9353 28.042 65.6245L25.3738 71.6551C23.1188 70.4059 20.6801 69.7813 18.0605 69.7813C16.6481 69.7813 15.6137 69.9482 14.9602 70.2767C14.3039 70.5997 13.9772 71.0278 13.9772 71.5582C13.9772 72.1478 14.3363 72.5597 15.0574 72.7966C15.7758 73.0281 16.964 73.2677 18.6222 73.5181C20.7098 73.8277 22.4409 74.1858 23.8182 74.595C25.1928 74.9988 26.3892 75.7365 27.4046 76.8134C28.4201 77.8903 28.9278 79.3952 28.9278 81.3256C28.9278 82.914 28.4417 84.3382 27.4694 85.6008C26.5026 86.8581 25.074 87.8462 23.1809 88.5623C21.2931 89.2784 19.0219 89.6392 16.3645 89.6392Z" fill="#F6682F"/>
<path d="M62.0196 63.4707C65.1442 63.4707 67.6369 64.4076 69.4949 66.2814C71.3529 68.1498 72.282 70.9659 72.282 74.735V89.2192H63.3807V76.178C63.3807 74.4065 63.0404 73.0981 62.3653 72.2581C61.6955 71.4182 60.7503 70.9982 59.535 70.9982C58.1874 70.9982 57.1072 71.4666 56.2943 72.3981C55.4868 73.3323 55.0844 74.7511 55.0844 76.6519V89.2192H46.1724V76.178C46.1724 72.7266 44.8923 70.9982 42.3375 70.9982C40.9602 70.9982 39.8664 71.4666 39.0536 72.3981C38.238 73.3323 37.8329 74.7511 37.8329 76.6519V89.2192H28.9316V63.8907H37.4116V66.5614C38.346 65.5276 39.464 64.7576 40.7603 64.2461C42.0566 63.7292 43.4718 63.4707 45.0057 63.4707C46.7827 63.4707 48.3761 63.7992 49.7804 64.4507C51.1901 65.1049 52.3325 66.1037 53.2048 67.4444C54.204 66.1683 55.4679 65.1883 56.9965 64.5045C58.5304 63.8153 60.2048 63.4707 62.0196 63.4707Z" fill="#F6682F"/>
<path d="M84.8898 63.4707C89.1082 63.4707 92.3273 64.4291 94.5472 66.346C96.7644 68.2629 97.8744 71.2001 97.8744 75.155V89.2192H89.5781V85.9454C88.2953 88.4088 85.7972 89.6392 82.0812 89.6392C80.107 89.6392 78.4002 89.2973 76.9608 88.6161C75.5268 87.9269 74.4438 87.0008 73.7093 85.8378C72.9747 84.6693 72.6074 83.334 72.6074 81.8317C72.6074 79.4356 73.5283 77.5753 75.3729 76.2534C77.2147 74.9342 80.0611 74.2719 83.9068 74.2719H88.9624C88.8111 71.5878 87.0125 70.2444 83.5719 70.2444C82.3539 70.2444 81.1198 70.4436 79.8667 70.8366C78.619 71.2243 77.5604 71.7601 76.6908 72.4412L73.6877 66.4214C75.092 65.4818 76.8015 64.7576 78.8188 64.2461C80.8335 63.7292 82.859 63.4707 84.8898 63.4707ZM84.5658 84.0286C85.5947 84.0286 86.4994 83.7809 87.2772 83.2855C88.0604 82.7901 88.6221 82.0579 88.9624 81.0887V78.8918H85.1275C82.5349 78.8918 81.2386 79.7506 81.2386 81.4656C81.2386 82.2409 81.533 82.8628 82.1244 83.3286C82.7131 83.797 83.5287 84.0286 84.5658 84.0286Z" fill="#F6682F"/>
<path d="M108.134 66.9275C109.042 65.7806 110.219 64.9191 111.667 64.343C113.12 63.7615 114.789 63.4707 116.668 63.4707V71.4612C115.853 71.3697 115.18 71.3212 114.648 71.3212C112.739 71.3212 111.245 71.8382 110.165 72.872C109.09 73.9004 108.556 75.4727 108.556 77.5888V89.2192H99.6543V63.8907H108.134V66.9275Z" fill="#F6682F"/>
<path d="M134.095 88.1964C133.344 88.6649 132.432 89.0203 131.351 89.2626C130.276 89.5129 129.131 89.6395 127.916 89.6395C124.602 89.6395 122.053 88.8318 120.268 87.2165C118.488 85.5957 117.6 83.1781 117.6 79.969V71.4615H113.895V64.8279H117.6V58.2373H126.512V64.8279H132.324V71.4615H126.512V79.8721C126.512 80.7767 126.752 81.4874 127.236 82.0043C127.716 82.5158 128.364 82.7689 129.18 82.7689C130.209 82.7689 131.116 82.5051 131.902 81.972L134.095 88.1964Z" fill="#F6682F"/>
<mask id="mask0_67_6313" style="mask-type:luminance" maskUnits="userSpaceOnUse" x="42" y="4" width="55" height="57">
<path d="M42.1738 4.47168H96.7911V60.8147H42.1738V4.47168Z" fill="white"/>
</mask>
<g mask="url(#mask0_67_6313)">
<path fill-rule="evenodd" clip-rule="evenodd" d="M84.4223 60.8122H54.3779C47.7587 60.8122 42.3926 55.4655 42.3926 48.9153V29.5124C42.3926 22.9218 47.7587 17.575 54.3779 17.575H68.1106L68.1511 13.0144C66.3606 12.4759 65.0292 10.8175 65.0292 8.82795C65.0292 6.42378 67.0276 4.47461 69.442 4.47461C71.8536 4.47461 73.8521 6.42378 73.8521 8.82795C73.8521 10.8175 72.4802 12.5163 70.6491 13.0547L70.6059 17.575H84.4223C90.9983 17.575 96.3671 22.9218 96.3671 29.5124V48.9556C96.3671 55.5058 90.9983 60.8122 84.4223 60.8122ZM58.121 41.9908C54.5859 41.9908 51.7961 39.2151 51.7961 35.7314C51.7961 32.2073 54.5859 29.4316 58.121 29.4316C61.6588 29.4316 64.4053 32.2073 64.4053 35.7314C64.4053 39.2151 61.6588 41.9908 58.121 41.9908ZM58.121 31.9192C55.9578 31.9192 54.2942 33.5749 54.2942 35.7314C54.2942 37.8448 55.9578 39.5032 58.121 39.5032C60.2437 39.5032 61.9504 37.8448 61.9504 35.7314C61.9504 33.5749 60.2437 31.9192 58.121 31.9192ZM80.7197 41.7432C77.1819 41.7432 74.3517 38.9244 74.3517 35.4406C74.3517 31.9596 77.1819 29.1408 80.7197 29.1408C84.1738 29.1408 87.0041 31.9596 87.0041 35.4406C87.0041 38.9244 84.1738 41.7432 80.7197 41.7432ZM80.7197 31.6284C78.5538 31.6284 76.8498 33.3676 76.8498 35.4406C76.8498 37.5567 78.5538 39.2959 80.7197 39.2959C82.8424 39.2959 84.506 37.5567 84.506 35.4406C84.506 33.2869 82.7992 31.6284 80.7197 31.6284ZM68.9423 49.2868C66.5685 49.2868 64.489 48.1695 63.3251 47.1734C62.7822 46.7184 62.7417 45.8892 63.1981 45.4315C63.6572 44.9361 64.4053 44.8527 64.9481 45.3507C65.3208 45.6819 68.9423 48.541 72.3964 45.3911C72.8961 44.9361 73.6441 44.9361 74.1842 45.4315C74.6434 45.9726 74.6433 46.7184 74.1437 47.2165C72.3964 48.708 70.6059 49.2868 68.9423 49.2868Z" fill="#F6682F"/>
</g>
<mask id="mask1_67_6313" style="mask-type:luminance" maskUnits="userSpaceOnUse" x="33" y="27" width="8" height="21">
<path d="M33.9004 27.5684H40.0983V47.5555H33.9004V27.5684Z" fill="white"/>
</mask>
<g mask="url(#mask1_67_6313)">
<path fill-rule="evenodd" clip-rule="evenodd" d="M39.8931 47.5048H39.3934C36.3985 47.5048 33.9004 45.0603 33.9004 42.0342V33.5752C33.9004 30.5491 36.3985 28.0615 39.3934 28.0615H39.9768C39.9336 28.5192 39.8931 29.0173 39.8931 29.5126V47.5048Z" fill="#F6682F"/>
</g>
<mask id="mask2_67_6313" style="mask-type:luminance" maskUnits="userSpaceOnUse" x="98" y="27" width="7" height="21">
<path d="M98.1738 27.5684H104.939V47.5555H98.1738V27.5684Z" fill="white"/>
</mask>
<g mask="url(#mask2_67_6313)">
<path fill-rule="evenodd" clip-rule="evenodd" d="M99.3626 47.5042H98.863V29.512C98.863 28.9736 98.8225 28.4755 98.7793 28.0205H99.3626C102.441 28.0205 104.939 30.4677 104.939 33.5342V42.0336C104.939 45.1 102.441 47.5042 99.3626 47.5042Z" fill="#F6682F"/>
</g>
<path d="M15.7588 95.7734V100.727H14.819L12.3452 97.7226V100.727H11.2109V95.7734H12.1616L14.6245 98.778V95.7734H15.7588Z" fill="#1A2423"/>
<path d="M23.8594 99.8118V100.727H20.0137V95.7734H23.7621V96.6996H21.1479V97.7657H23.4597V98.6595H21.1479V99.8118H23.8594Z" fill="#1A2423"/>
<path d="M30.9659 100.727L29.7669 99.0041L28.5894 100.727H27.2715L29.1079 98.2072L27.3687 95.7734H28.665L29.8101 97.378L30.9335 95.7734H32.1758L30.4474 98.1641L32.2946 100.727H30.9659Z" fill="#1A2423"/>
<path d="M37.0059 96.7103H35.418V95.7734H39.739V96.7103H38.151V100.727H37.0059V96.7103Z" fill="#1A2423"/>
<path d="M46.7812 98.1751H47.8398V100.178C47.5644 100.388 47.2511 100.544 46.9 100.652C46.5462 100.76 46.1897 100.814 45.8306 100.814C45.312 100.814 44.8475 100.706 44.437 100.49C44.0265 100.27 43.7025 99.9628 43.4648 99.5751C43.2326 99.182 43.1191 98.7405 43.1191 98.2505C43.1191 97.7632 43.2326 97.3244 43.4648 96.9367C43.7025 96.5436 44.0265 96.2367 44.437 96.0213C44.8529 95.8006 45.3255 95.6875 45.8522 95.6875C46.2843 95.6875 46.6759 95.7629 47.0296 95.9136C47.3888 96.059 47.6886 96.269 47.9262 96.549L47.1917 97.2275C46.8298 96.8559 46.4031 96.6675 45.9062 96.6675C45.5875 96.6675 45.3039 96.7375 45.0528 96.8721C44.807 97.0013 44.6153 97.1898 44.4803 97.4321C44.3425 97.669 44.275 97.9436 44.275 98.2505C44.275 98.5601 44.3425 98.8374 44.4803 99.0797C44.6153 99.3166 44.807 99.5051 45.0528 99.6397C45.2958 99.7689 45.5767 99.8335 45.8954 99.8335C46.2194 99.8335 46.5138 99.7662 46.7812 99.6289V98.1751Z" fill="#1A2423"/>
<path d="M55.8183 99.8118V100.727H51.9727V95.7734H55.7211V96.6996H53.1069V97.7657H55.4186V98.6595H53.1069V99.8118H55.8183Z" fill="#1A2423"/>
<path d="M64.3525 95.7734V100.727H63.4127L60.9389 97.7226V100.727H59.8047V95.7734H60.7553L63.2183 98.778V95.7734H64.3525Z" fill="#1A2423"/>
<path d="M70.2379 100.814C69.8409 100.814 69.4601 100.76 69.0928 100.652C68.7255 100.544 68.4285 100.41 68.207 100.243L68.6067 99.3812C68.8147 99.532 69.0658 99.6558 69.3629 99.7474C69.6573 99.8416 69.9489 99.8874 70.2379 99.8874C70.5674 99.8874 70.8104 99.8416 70.9617 99.7474C71.1183 99.6558 71.1993 99.5266 71.1993 99.3597C71.1993 99.2466 71.1507 99.1497 71.0589 99.0689C70.9644 98.9909 70.8455 98.9289 70.7024 98.8859C70.5566 98.8374 70.3621 98.7836 70.1191 98.7243C69.7437 98.6382 69.4331 98.552 69.1901 98.4659C68.9524 98.3743 68.7472 98.2263 68.5743 98.0244C68.4015 97.8251 68.3151 97.5586 68.3151 97.2275C68.3151 96.9421 68.3907 96.6836 68.5419 96.4521C68.6985 96.2152 68.9335 96.0294 69.2441 95.8921C69.56 95.7575 69.9462 95.6875 70.3999 95.6875C70.7159 95.6875 71.0265 95.7279 71.3289 95.806C71.6368 95.8786 71.9042 95.9863 72.1283 96.129L71.7718 97.0013C71.31 96.7429 70.8536 96.6136 70.3999 96.6136C70.0759 96.6136 69.8328 96.6675 69.6762 96.7752C69.5249 96.8775 69.4493 97.0094 69.4493 97.1736C69.4493 97.3459 69.5384 97.4751 69.7194 97.5613C69.8976 97.6421 70.1677 97.7201 70.5296 97.7982C70.9103 97.8844 71.2209 97.9759 71.4586 98.0674C71.7016 98.1536 71.9123 98.2936 72.0851 98.4874C72.258 98.6813 72.3444 98.9451 72.3444 99.2736C72.3444 99.5616 72.2634 99.8228 72.1067 100.06C71.9474 100.291 71.7097 100.474 71.3938 100.609C71.0751 100.744 70.6916 100.814 70.2379 100.814Z" fill="#1A2423"/>
<path d="M78.602 100.814C78.0889 100.814 77.6244 100.703 77.2085 100.48C76.798 100.259 76.474 99.952 76.2363 99.5643C76.0041 99.1766 75.8906 98.7405 75.8906 98.2505C75.8906 97.7632 76.0041 97.3244 76.2363 96.9367C76.474 96.549 76.798 96.2448 77.2085 96.0213C77.6244 95.8006 78.0889 95.6875 78.602 95.6875C79.1206 95.6875 79.5851 95.8006 79.9956 96.0213C80.4061 96.2448 80.7301 96.549 80.9678 96.9367C81.2054 97.3244 81.3243 97.7632 81.3243 98.2505C81.3243 98.7405 81.2054 99.1766 80.9678 99.5643C80.7301 99.952 80.4061 100.259 79.9956 100.48C79.5851 100.703 79.1206 100.814 78.602 100.814ZM78.602 99.8335C78.8964 99.8335 79.1638 99.7689 79.4014 99.6397C79.6391 99.5051 79.8227 99.3166 79.9524 99.0797C80.0874 98.8374 80.1576 98.5601 80.1576 98.2505C80.1576 97.9436 80.0874 97.669 79.9524 97.4321C79.8227 97.1898 79.6391 97.0013 79.4014 96.8721C79.1638 96.7375 78.8964 96.6675 78.602 96.6675C78.3131 96.6675 78.0511 96.7375 77.8135 96.8721C77.5758 97.0013 77.3868 97.1898 77.2517 97.4321C77.114 97.669 77.0465 97.9436 77.0465 98.2505C77.0465 98.5601 77.114 98.8374 77.2517 99.0797C77.3868 99.3166 77.5758 99.5051 77.8135 99.6397C78.0511 99.7689 78.3131 99.8335 78.602 99.8335Z" fill="#1A2423"/>
<path d="M85.2617 95.7734H86.4068V99.7902H88.9022V100.727H85.2617V95.7734Z" fill="#1A2423"/>
<path d="M94.8192 100.813C94.1062 100.813 93.5499 100.619 93.1556 100.232C92.7667 99.8387 92.5723 99.2787 92.5723 98.5518V95.7734H93.7173V98.5087C93.7173 99.3918 94.0873 99.8333 94.83 99.8333C95.1811 99.8333 95.4511 99.7256 95.6402 99.5103C95.8346 99.2949 95.9318 98.961 95.9318 98.5087V95.7734H97.0661V98.5518C97.0661 99.2787 96.8662 99.8387 96.472 100.232C96.075 100.619 95.524 100.813 94.8192 100.813Z" fill="#1A2423"/>
<path d="M102.303 96.7103H100.715V95.7734H105.036V96.7103H103.448V100.727H102.303V96.7103Z" fill="#1A2423"/>
<path d="M108.73 95.7734H109.876V100.727H108.73V95.7734Z" fill="#1A2423"/>
<path d="M116.526 100.814C116.013 100.814 115.548 100.703 115.132 100.48C114.722 100.259 114.398 99.952 114.16 99.5643C113.928 99.1766 113.814 98.7405 113.814 98.2505C113.814 97.7632 113.928 97.3244 114.16 96.9367C114.398 96.549 114.722 96.2448 115.132 96.0213C115.548 95.8006 116.013 95.6875 116.526 95.6875C117.044 95.6875 117.509 95.8006 117.919 96.0213C118.33 96.2448 118.654 96.549 118.892 96.9367C119.129 97.3244 119.248 97.7632 119.248 98.2505C119.248 98.7405 119.129 99.1766 118.892 99.5643C118.654 99.952 118.33 100.259 117.919 100.48C117.509 100.703 117.044 100.814 116.526 100.814ZM116.526 99.8335C116.82 99.8335 117.088 99.7689 117.325 99.6397C117.563 99.5051 117.747 99.3166 117.876 99.0797C118.011 98.8374 118.081 98.5601 118.081 98.2505C118.081 97.9436 118.011 97.669 117.876 97.4321C117.747 97.1898 117.563 97.0013 117.325 96.8721C117.088 96.7375 116.82 96.6675 116.526 96.6675C116.237 96.6675 115.975 96.7375 115.737 96.8721C115.5 97.0013 115.311 97.1898 115.176 97.4321C115.038 97.669 114.97 97.9436 114.97 98.2505C114.97 98.5601 115.038 98.8374 115.176 99.0797C115.311 99.3166 115.5 99.5051 115.737 99.6397C115.975 99.7689 116.237 99.8335 116.526 99.8335Z" fill="#1A2423"/>
<path d="M127.733 95.7734V100.727H126.794L124.32 97.7226V100.727H123.186V95.7734H124.136L126.599 98.778V95.7734H127.733Z" fill="#1A2423"/>
</svg>
