<svg width="219" height="97" viewBox="0 0 219 97" fill="none" xmlns="http://www.w3.org/2000/svg">
<path d="M75.2633 79.9676H51.8883V52.0457C51.8883 50.5377 51.5133 49.4068 50.7633 48.6528C50.0133 47.8988 49.132 47.5219 48.1258 47.5219C47.1164 47.5219 46.2383 47.8863 45.4883 48.6151C44.7383 49.3377 44.3633 50.4466 44.3633 51.9451V79.9676H20.3008V50.965C20.3008 45.7877 21.1008 41.4336 22.7008 37.8962C24.3008 34.3525 26.4508 31.5 29.1508 29.3387C31.857 27.1773 34.857 25.6065 38.1508 24.6264C41.4414 23.6399 44.782 23.1436 48.1758 23.1436C50.907 23.1436 53.6133 23.6211 56.2883 24.5761C58.9633 25.5248 61.407 27.1113 63.6258 29.3387C65.5164 27.2464 67.8445 25.707 70.6133 24.7269C73.3883 23.7404 76.107 23.2127 78.7758 23.1436C82.232 23.1436 85.6258 23.6556 88.9508 24.6766C92.2758 25.6913 95.2883 27.2967 97.9883 29.4895C100.695 31.6854 102.863 34.5536 104.488 38.0973C106.12 41.6346 106.938 45.9228 106.938 50.965V79.9676H82.8883V51.9451C82.8883 50.4466 82.4945 49.3377 81.7133 48.6151C80.9289 47.8863 80.0508 47.5219 79.0758 47.5219C78.1008 47.5219 77.2195 47.8988 76.4383 48.6528C75.6539 49.4068 75.2633 50.5377 75.2633 52.0457V79.9676Z" fill="#FFA602"/>
<path d="M108.016 62.8464C105.12 62.8464 102.388 62.2998 99.8289 61.2034C97.2664 60.0976 95.0133 58.5677 93.0664 56.6105C91.1195 54.6533 89.6008 52.3851 88.5133 49.8122C87.4227 47.2361 86.8789 44.4936 86.8789 41.5814C86.8789 38.622 87.4227 35.8669 88.5133 33.316C89.6008 30.7651 91.1195 28.5126 93.0664 26.5554C95.0133 24.5982 97.2664 23.0714 99.8289 21.9751C102.388 20.8818 105.12 20.332 108.016 20.332C110.96 20.332 113.701 20.8818 116.238 21.9751C118.785 23.0714 121.029 24.5982 122.963 26.5554C124.91 28.5126 126.429 30.7651 127.516 33.316C128.62 35.8669 129.17 38.622 129.17 41.5814C129.17 44.4936 128.62 47.2361 127.516 49.8122C126.429 52.3851 124.91 54.6533 122.963 56.6105C121.029 58.5677 118.785 60.0976 116.238 61.2034C113.701 62.2998 110.96 62.8464 108.016 62.8464ZM108.016 37.9309C107.02 37.9309 106.16 38.2922 105.441 39.0116C104.735 39.7247 104.382 40.5792 104.382 41.5814C104.382 42.5835 104.735 43.4443 105.441 44.1669C106.16 44.88 107.02 45.235 108.016 45.235C109.013 45.235 109.863 44.88 110.57 44.1669C111.288 43.4443 111.648 42.5835 111.648 41.5814C111.648 40.5792 111.288 39.7247 110.57 39.0116C109.863 38.2922 109.013 37.9309 108.016 37.9309Z" stroke="#FFF9F9" stroke-width="8.90003"/>
<path d="M108.016 62.8374C105.123 62.8374 102.395 62.2876 99.8289 61.1913C97.2695 60.0949 95.0164 58.5712 93.0664 56.6172C91.1227 54.6569 89.607 52.3918 88.5164 49.8189C87.4227 47.2397 86.8789 44.4909 86.8789 41.5755C86.8789 38.6193 87.4227 35.8673 88.5164 33.3196C89.607 30.7655 91.1227 28.513 93.0664 26.559C95.0164 24.5987 97.2695 23.0719 99.8289 21.9723C102.395 20.8759 105.123 20.3262 108.016 20.3262C110.957 20.3262 113.698 20.8759 116.241 21.9723C118.782 23.0719 121.023 24.5987 122.966 26.559C124.916 28.513 126.435 30.7655 127.529 33.3196C128.62 35.8673 129.166 38.6193 129.166 41.5755C129.166 44.4909 128.62 47.2397 127.529 49.8189C126.435 52.3918 124.916 54.6569 122.966 56.6172C121.023 58.5712 118.782 60.0949 116.241 61.1913C113.698 62.2876 110.957 62.8374 108.016 62.8374ZM108.016 37.9313C107.023 37.9313 106.17 38.2926 105.454 39.012C104.745 39.7251 104.391 40.5796 104.391 41.5755C104.391 42.5808 104.745 43.4447 105.454 44.1641C106.17 44.8773 107.023 45.2323 108.016 45.2323C109.016 45.2323 109.87 44.8773 110.579 44.1641C111.295 43.4447 111.654 42.5808 111.654 41.5755C111.654 40.5796 111.295 39.7251 110.579 39.012C109.87 38.2926 109.016 37.9313 108.016 37.9313Z" fill="#FFA602"/>
<path d="M137.285 82.9372C134.388 82.9372 131.66 82.3875 129.1 81.2942C126.538 80.1884 124.285 78.6553 122.338 76.6982C120.391 74.741 118.872 72.4759 117.785 69.8999C116.694 67.327 116.15 64.5844 116.15 61.6722C116.15 58.7129 116.694 55.9577 117.785 53.4068C118.872 50.8559 120.391 48.6003 122.338 46.6431C124.285 44.6859 126.538 43.1591 129.1 42.0659C131.66 40.9695 134.388 40.4229 137.285 40.4229C140.229 40.4229 142.969 40.9695 145.507 42.0659C148.057 43.1591 150.3 44.6859 152.235 46.6431C154.182 48.6003 155.7 50.8559 156.788 53.4068C157.888 55.9577 158.441 58.7129 158.441 61.6722C158.441 64.5844 157.888 67.327 156.788 69.8999C155.7 72.4759 154.182 74.741 152.235 76.6982C150.3 78.6553 148.057 80.1884 145.507 81.2942C142.969 82.3875 140.229 82.9372 137.285 82.9372ZM137.285 58.0186C136.291 58.0186 135.432 58.3799 134.713 59.1024C134.007 59.8124 133.654 60.67 133.654 61.6722C133.654 62.6712 134.007 63.5351 134.713 64.2577C135.432 64.9677 136.291 65.3227 137.285 65.3227C138.282 65.3227 139.135 64.9677 139.841 64.2577C140.56 63.5351 140.919 62.6712 140.919 61.6722C140.919 60.67 140.56 59.8124 139.841 59.1024C139.135 58.3799 138.282 58.0186 137.285 58.0186Z" stroke="#FFF9F9" stroke-width="8.90003"/>
<path d="M137.288 82.9263C134.394 82.9263 131.666 82.3765 129.1 81.2801C126.541 80.1837 124.288 78.6601 122.338 76.706C120.394 74.7457 118.879 72.4807 117.788 69.9078C116.694 67.3286 116.15 64.5797 116.15 61.6644C116.15 58.7082 116.694 55.9562 117.788 53.4084C118.879 50.8544 120.394 48.6019 122.338 46.6478C124.288 44.6875 126.541 43.1607 129.1 42.0612C131.666 40.9648 134.394 40.415 137.288 40.415C140.229 40.415 142.969 40.9648 145.513 42.0612C148.054 43.1607 150.294 44.6875 152.238 46.6478C154.188 48.6019 155.707 50.8544 156.8 53.4084C157.891 55.9562 158.438 58.7082 158.438 61.6644C158.438 64.5797 157.891 67.3286 156.8 69.9078C155.707 72.4807 154.188 74.7457 152.238 76.706C150.294 78.6601 148.054 80.1837 145.513 81.2801C142.969 82.3765 140.229 82.9263 137.288 82.9263ZM137.288 58.0202C136.294 58.0202 135.441 58.3815 134.725 59.1009C134.016 59.814 133.663 60.6685 133.663 61.6644C133.663 62.6697 134.016 63.5336 134.725 64.253C135.441 64.9661 136.294 65.3211 137.288 65.3211C138.288 65.3211 139.141 64.9661 139.85 64.253C140.566 63.5336 140.925 62.6697 140.925 61.6644C140.925 60.6685 140.566 59.814 139.85 59.1009C139.141 58.3815 138.288 58.0202 137.288 58.0202Z" fill="#FFA602"/>
<path d="M172.448 81.7825H154.936V61.1741C154.936 57.6398 155.514 54.5611 156.673 51.9379C157.839 49.3085 159.404 47.1251 161.373 45.391C163.348 43.6506 165.554 42.35 167.998 41.4955C170.448 40.6347 172.951 40.2012 175.511 40.2012C178.076 40.2012 180.592 40.6347 183.061 41.4955C185.526 42.35 187.729 43.6506 189.673 45.391C191.623 47.1251 193.179 49.3085 194.348 51.9379C195.514 54.5611 196.098 57.6398 196.098 61.1741V81.7825H178.573V61.1741C178.573 60.1185 178.264 59.2954 177.648 58.6985C177.029 58.1048 176.317 57.8063 175.511 57.8063C174.751 57.8063 174.051 58.1048 173.411 58.6985C172.767 59.2954 172.448 60.1185 172.448 61.1741V81.7825Z" fill="#FFA602"/>
<path d="M166.479 30.5203L164.666 30.8219L163.104 21.1334L164.916 20.8319L165.566 24.8404L169.704 24.1619L169.054 20.1533L170.866 19.8643L172.429 29.5528L170.616 29.8418L169.966 25.7955L165.829 26.474L166.479 30.5203Z" fill="#FFA602"/>
<path d="M177.917 30.1972L176.092 29.9459L177.417 20.2197L179.242 20.471L177.917 30.1972Z" fill="#FFA602"/>
<path d="M185.773 32.7472L183.936 31.9178L184.798 21.5508L186.561 22.355L185.673 30.4727L191.161 24.4284L192.923 25.2201L185.773 32.7472Z" fill="#FFA602"/>
<path d="M195.619 40.4541L190.969 35.8675L197.806 28.8682L202.456 33.4548L201.306 34.636L197.969 31.3437L196.281 33.0653L199.269 36.0183L198.119 37.1869L195.131 34.2339L193.444 35.9806L196.781 39.2729L195.619 40.4541Z" fill="#FFA602"/>
</svg>
