<svg width="424" height="159" viewBox="0 0 424 159" fill="none" xmlns="http://www.w3.org/2000/svg">
<path d="M43.5788 49.5371C46.6204 49.5371 49.8392 49.7559 53.2454 50.1829C56.6621 50.5996 59.9642 51.4121 63.1621 52.6204C66.3704 53.8184 69.2715 55.5736 71.8704 57.8913C74.4642 60.1986 76.5371 63.2246 78.0788 66.9746C79.6204 70.7246 80.3913 75.4069 80.3913 81.0163C80.3913 86.4225 79.6257 90.9694 78.0996 94.6621C76.584 98.36 74.5423 101.37 71.9746 103.704C69.4017 106.037 66.5059 107.85 63.2871 109.141C60.0632 110.423 56.7559 111.298 53.3704 111.766C49.9954 112.24 46.7298 112.475 43.5788 112.475H33.2871C32.7038 112.475 32.4121 112.24 32.4121 111.766V87.0579H44.4538V100.912C45.9642 100.969 47.7454 100.933 49.7871 100.808C51.8392 100.673 53.9382 100.277 56.0788 99.6204C58.2298 98.9538 60.235 97.9225 62.0996 96.5163C63.959 95.0996 65.4538 93.1361 66.5788 90.6204C67.7142 88.0944 68.2871 84.8913 68.2871 81.0163C68.2871 76.0319 67.2507 72.0319 65.1829 69.0163C63.11 66.0059 60.2767 63.86 56.6829 62.5788C53.084 61.2871 49.0059 60.7663 44.4538 61.0163V74.9538H32.4121V50.2454C32.4121 49.7767 32.7038 49.5371 33.2871 49.5371H43.5788Z" fill="#27AB9E"/>
<path d="M112.726 100.745V112.475H83.7051C83.1217 112.475 82.8301 112.24 82.8301 111.766V50.2454C82.8301 49.7767 83.1217 49.5371 83.7051 49.5371H112.726V60.9538H94.8717V75.1829H119.559C120.143 75.1829 120.434 75.4225 120.434 75.8913V85.8913C120.434 86.3652 120.143 86.5996 119.559 86.5996H94.8717V100.745H112.726Z" fill="#27AB9E"/>
<path d="M155.128 61.2663H167.232L147.566 112.079C147.467 112.344 147.232 112.475 146.857 112.475C146.493 112.475 146.232 112.344 146.066 112.079L122.399 50.4954C122.29 50.235 122.295 50.0111 122.42 49.8288C122.555 49.6361 122.784 49.5371 123.107 49.5371H133.795C134.264 49.5371 134.529 49.6986 134.587 50.0163L146.857 84.3079L155.128 61.2663Z" fill="#27AB9E"/>
<path d="M226.875 49.5371C227.292 49.5371 227.573 49.6725 227.729 49.9329C227.896 50.1986 227.865 50.4642 227.646 50.7246L205.938 81.0163C208.24 84.2142 210.563 87.4329 212.896 90.6829C215.229 93.9329 217.552 97.1829 219.875 100.433H205.229L198.708 91.2246L183.688 112.245C183.63 112.287 183.521 112.339 183.354 112.391C183.198 112.449 183.073 112.475 182.979 112.475H170.396C170.021 112.475 169.76 112.344 169.625 112.079C169.5 111.818 169.542 111.553 169.75 111.287L191.313 81.0163C189.005 77.8079 186.698 74.5788 184.396 71.3288C182.089 68.0788 179.776 64.8288 177.458 61.5788H192.104L198.708 70.7871L213.583 49.7871C213.625 49.6777 213.734 49.61 213.917 49.5788C214.109 49.5527 214.234 49.5371 214.292 49.5371H226.875Z" fill="#1A2423"/>
<path d="M251.882 49.5371C252.409 49.5371 253.455 49.61 255.028 49.7454C256.596 49.8704 258.388 50.2402 260.403 50.8496C262.429 51.4486 264.409 52.4225 266.341 53.7663C268.284 55.0996 269.893 56.9486 271.174 59.3079C272.466 61.6569 273.112 64.6934 273.112 68.4121C273.112 71.5111 272.638 74.1204 271.695 76.2454C270.747 78.3704 269.507 80.1152 267.966 81.4746C266.424 82.8392 264.784 83.9121 263.049 84.7038C261.31 85.4954 259.643 86.0684 258.049 86.4121C256.45 86.7454 255.091 86.9538 253.966 87.0371C252.841 87.11 252.143 87.1413 251.882 87.1413H242.507V111.766C242.507 112.24 242.247 112.475 241.737 112.475H231.507C230.976 112.475 230.716 112.24 230.716 111.766V75.4954H251.882C252.299 75.4954 252.992 75.4486 253.966 75.3496C254.935 75.2402 255.987 74.9746 257.112 74.5579C258.237 74.1413 259.185 73.4486 259.966 72.4746C260.757 71.5059 261.153 70.1517 261.153 68.4121C261.153 66.6934 260.742 65.3288 259.924 64.3288C259.117 63.3288 258.153 62.61 257.028 62.1621C255.903 61.7194 254.851 61.4329 253.882 61.3079C252.909 61.1725 252.242 61.0996 251.882 61.0996H230.716V50.2454C230.716 49.7767 230.976 49.5371 231.507 49.5371H251.882Z" fill="#1A2423"/>
<path d="M305.131 100.745V112.475H276.11C275.527 112.475 275.235 112.24 275.235 111.766V50.2454C275.235 49.7767 275.527 49.5371 276.11 49.5371H305.131V60.9538H287.277V75.1829H311.965C312.548 75.1829 312.84 75.4225 312.84 75.8913V85.8913C312.84 86.3652 312.548 86.5996 311.965 86.5996H287.277V100.745H305.131Z" fill="#1A2423"/>
<path d="M357.679 111.454C357.773 111.719 357.752 111.954 357.617 112.162C357.492 112.37 357.273 112.475 356.971 112.475H345.721C345.304 112.475 345.038 112.318 344.929 111.995L333.45 87.0579H326.679V111.766C326.679 112.24 326.387 112.475 325.804 112.475H315.512C314.981 112.475 314.721 112.24 314.721 111.766V75.4954H335.887C336.512 75.4954 337.346 75.4486 338.387 75.3496C339.439 75.2402 340.476 74.9486 341.492 74.4746C342.518 74.0059 343.387 73.2819 344.096 72.3079C344.804 71.3392 345.158 69.9902 345.158 68.2663C345.158 66.5319 344.773 65.1725 344.012 64.1829C343.262 63.1829 342.33 62.4642 341.221 62.0163C340.122 61.5736 339.075 61.2871 338.075 61.1621C337.085 61.0267 336.356 60.9538 335.887 60.9538H314.721V50.2454C314.721 49.7767 314.981 49.5371 315.512 49.5371H335.887C336.622 49.5371 337.804 49.61 339.429 49.7454C341.054 49.8704 342.872 50.2246 344.887 50.8079C346.898 51.3809 348.835 52.3236 350.7 53.6413C352.575 54.9486 354.106 56.7819 355.304 59.1413C356.512 61.5059 357.117 64.5475 357.117 68.2663C357.117 71.4642 356.585 74.1777 355.533 76.4121C354.492 78.6361 353.085 80.4538 351.325 81.8704C349.575 83.2871 347.648 84.3913 345.554 85.1829C347.554 89.6413 349.585 94.0527 351.658 98.4121C353.726 102.761 355.731 107.11 357.679 111.454Z" fill="#1A2423"/>
<path d="M372.926 72.3496H384.885V111.766C384.885 112.24 384.572 112.475 383.947 112.475H373.801C373.218 112.475 372.926 112.24 372.926 111.766V72.3496ZM360.822 60.3288C360.239 60.3288 359.947 60.0944 359.947 59.6204V50.2454C359.947 49.7767 360.239 49.5371 360.822 49.5371H396.926C397.494 49.5371 397.781 49.7767 397.781 50.2454V59.6204C397.781 60.0944 397.494 60.3288 396.926 60.3288H360.822Z" fill="#1A2423"/>
</svg>
