<svg width="81" height="114" viewBox="0 0 81 114" fill="none" xmlns="http://www.w3.org/2000/svg">
<g clip-path="url(#clip0_66_5281)">
<path d="M182.283 -86.5664H-99.1602V196.323H182.283V-86.5664Z" fill="white"/>
<path d="M182.283 -86.5664H-99.1602V196.323H182.283V-86.5664Z" fill="white"/>
<mask id="mask0_66_5281" style="mask-type:luminance" maskUnits="userSpaceOnUse" x="2" y="75" width="22" height="37">
<path d="M2.52344 75.3662H23.6024V111.58H2.52344V75.3662Z" fill="white"/>
</mask>
<g mask="url(#mask0_66_5281)">
<path d="M2.52344 75.3662H23.6024V111.619H2.52344V75.3662Z" fill="#FBEB78"/>
</g>
<mask id="mask1_66_5281" style="mask-type:luminance" maskUnits="userSpaceOnUse" x="2" y="1" width="22" height="22">
<path d="M2.52344 1.77539H23.6024V22.9627H2.52344V1.77539Z" fill="white"/>
</mask>
<g mask="url(#mask1_66_5281)">
<mask id="mask2_66_5281" style="mask-type:luminance" maskUnits="userSpaceOnUse" x="2" y="1" width="22" height="22">
<path d="M13.0629 1.77539C7.24103 1.77539 2.52344 6.51723 2.52344 12.369C2.52344 18.2208 7.24103 22.9627 13.0629 22.9627C18.8848 22.9627 23.6024 18.2208 23.6024 12.369C23.6024 6.51723 18.8848 1.77539 13.0629 1.77539Z" fill="white"/>
</mask>
<g mask="url(#mask2_66_5281)">
<path d="M2.52344 1.77539H23.6024V22.9627H2.52344V1.77539Z" fill="#DF3821"/>
</g>
</g>
<mask id="mask3_66_5281" style="mask-type:luminance" maskUnits="userSpaceOnUse" x="57" y="66" width="22" height="24">
<path d="M57.0703 66.96H78.1492V89.0313H57.0703V66.96Z" fill="white"/>
</mask>
<g mask="url(#mask3_66_5281)">
<path d="M57.0703 66.96H78.1492V89.0583H57.0703V66.96Z" fill="#B9E185"/>
</g>
<path d="M11.127 54.2201V11.1875H18.7982V27.5224L19.3748 27.6403C20.3911 26.135 21.6347 24.9759 23.1078 24.1631C24.5859 23.3454 26.3718 22.9353 28.4631 22.9353C35.1987 22.9353 38.5677 26.7759 38.5677 34.4571V54.2201H30.8964V35.4296C30.8964 33.3349 30.4786 31.8149 29.6455 30.8719C28.8173 29.924 27.5274 29.4476 25.7757 29.4476C23.6307 29.4476 21.9303 30.1696 20.6745 31.6086C19.4237 33.0427 18.7982 35.2822 18.7982 38.3272V54.2201H11.127Z" fill="black"/>
<path d="M11.127 104.282V61.1313H18.7982V65.1389L19.3748 65.2568C20.2787 63.6925 21.4881 62.5163 23.0003 61.7305C24.5175 60.9447 26.2936 60.5518 28.3263 60.5518C30.7742 60.5518 32.9193 61.1387 34.7565 62.31C36.5937 63.4764 38.0229 65.2519 39.0465 67.6338C40.0751 70.0183 40.5905 72.9724 40.5905 76.4938C40.5905 80.0053 40.0482 82.9472 38.9683 85.3243C37.8861 87.7013 36.3836 89.4792 34.4633 90.6579C32.5479 91.8366 30.332 92.426 27.8181 92.426C25.9223 92.426 24.2805 92.1043 22.8928 91.4634C21.5052 90.8224 20.3325 89.823 19.3748 88.4675L18.7982 88.5755V104.282H11.127ZM25.6877 85.8841C27.9793 85.8841 29.7164 85.1327 30.8964 83.625C32.074 82.1196 32.6652 79.7426 32.6652 76.4938C32.6652 73.2523 32.074 70.8753 30.8964 69.3626C29.7164 67.8499 27.9793 67.0936 25.6877 67.0936C23.55 67.0936 21.8521 67.8745 20.5963 69.4314C19.3382 70.9907 18.7103 73.3456 18.7103 76.4938C18.7103 79.6321 19.3382 81.9821 20.5963 83.5464C21.8521 85.1057 23.55 85.8841 25.6877 85.8841Z" fill="black"/>
<path d="M70.3665 78.2225H50.7339C50.9538 80.8943 51.7111 82.8391 53.0011 84.0571C54.2959 85.2751 56.0598 85.8841 58.2879 85.8841C60.0469 85.8841 61.4688 85.5551 62.5584 84.8921C63.6456 84.2315 64.5226 83.2321 65.1872 81.8962H65.7735L70.8649 85.1867C69.8681 87.3354 68.3632 89.0814 66.3501 90.4222C64.337 91.758 61.6496 92.426 58.2879 92.426C55.1339 92.426 52.4074 91.8243 50.1084 90.6186C47.8071 89.408 46.0358 87.6105 44.7923 85.226C43.5463 82.8441 42.9258 79.9317 42.9258 76.4938C42.9258 73.0117 43.5805 70.0747 44.89 67.6829C46.1995 65.2862 47.9708 63.4985 50.2062 62.3198C52.4392 61.1411 54.9506 60.5518 57.7406 60.5518C62.06 60.5518 65.368 61.701 67.6693 63.9995C69.9683 66.298 71.119 69.6769 71.119 74.1364C71.119 75.7473 71.0628 76.9996 70.9528 77.8886L70.3665 78.2225ZM63.7799 73.2425C63.7018 70.9047 63.157 69.203 62.148 68.1348C61.1439 67.069 59.6756 66.5337 57.7406 66.5337C53.8635 66.5337 51.5841 68.7708 50.9 73.2425H63.7799Z" fill="black"/>
<path d="M57.065 55.1896C54.0673 55.1896 51.4386 54.5757 49.1787 53.343C46.9164 52.1054 45.1647 50.2956 43.9212 47.9111C42.6752 45.5218 42.0547 42.6364 42.0547 39.2574C42.0547 35.8859 42.6752 33.0054 43.9212 30.6136C45.1647 28.2169 46.9164 26.4046 49.1787 25.1719C51.4386 23.9343 54.0673 23.3154 57.065 23.3154C60.0553 23.3154 62.6792 23.9343 64.9415 25.1719C67.2014 26.4046 68.9579 28.2169 70.2088 30.6136C71.4645 33.0054 72.0949 35.8859 72.0949 39.2574C72.0949 42.6364 71.4645 45.5218 70.2088 47.9111C68.9579 50.2956 67.2014 52.1054 64.9415 53.343C62.6792 54.5757 60.0553 55.1896 57.065 55.1896ZM57.065 48.6478C61.807 48.6478 64.1793 45.5193 64.1793 39.2574C64.1793 36.016 63.5685 33.6389 62.3518 32.1263C61.1327 30.6136 59.3713 29.8573 57.065 29.8573C52.3156 29.8573 49.941 32.9907 49.941 39.2574C49.941 45.5193 52.3156 48.6478 57.065 48.6478Z" fill="black"/>
<mask id="mask4_66_5281" style="mask-type:luminance" maskUnits="userSpaceOnUse" x="39" y="19" width="36" height="20">
<path d="M39.3145 19.3916H74.8247V38.1085H39.3145V19.3916Z" fill="white"/>
</mask>
<g mask="url(#mask4_66_5281)">
<path d="M39.3145 19.3916H74.8125V38.1085H39.3145V19.3916Z" fill="white"/>
</g>
<mask id="mask5_66_5281" style="mask-type:luminance" maskUnits="userSpaceOnUse" x="41" y="26" width="11" height="11">
<path d="M41.8496 26.9404H51.0112V36.1515H41.8496V26.9404Z" fill="white"/>
</mask>
<g mask="url(#mask5_66_5281)">
<mask id="mask6_66_5281" style="mask-type:luminance" maskUnits="userSpaceOnUse" x="41" y="26" width="11" height="11">
<path d="M46.4304 26.9404C43.8994 26.9404 41.8496 29.0007 41.8496 31.5448C41.8496 34.0888 43.8994 36.1515 46.4304 36.1515C48.9614 36.1515 51.0112 34.0888 51.0112 31.5448C51.0112 29.0007 48.9614 26.9404 46.4304 26.9404Z" fill="white"/>
</mask>
<g mask="url(#mask6_66_5281)">
<path d="M41.8496 26.9404H51.0112V36.1515H41.8496V26.9404Z" fill="#648DCB"/>
</g>
</g>
<mask id="mask7_66_5281" style="mask-type:luminance" maskUnits="userSpaceOnUse" x="62" y="26" width="11" height="11">
<path d="M62.9355 26.9404H72.0996V36.1515H62.9355V26.9404Z" fill="white"/>
</mask>
<g mask="url(#mask7_66_5281)">
<mask id="mask8_66_5281" style="mask-type:luminance" maskUnits="userSpaceOnUse" x="62" y="26" width="11" height="11">
<path d="M67.5188 26.9404C64.9877 26.9404 62.9355 29.0007 62.9355 31.5448C62.9355 34.0888 64.9877 36.1515 67.5188 36.1515C70.0498 36.1515 72.0996 34.0888 72.0996 31.5448C72.0996 29.0007 70.0498 26.9404 67.5188 26.9404Z" fill="white"/>
</mask>
<g mask="url(#mask8_66_5281)">
<path d="M62.9355 26.9404H72.0996V36.1515H62.9355V26.9404Z" fill="#648DCB"/>
</g>
</g>
</g>
<defs>
<clipPath id="clip0_66_5281">
<rect width="81" height="114" fill="white"/>
</clipPath>
</defs>
</svg>
