<svg width="160" height="80" viewBox="0 0 160 80" fill="none" xmlns="http://www.w3.org/2000/svg">
<path fill-rule="evenodd" clip-rule="evenodd" d="M95 10H65L65 21H95V10ZM65 8C63.8954 8 63 8.89543 63 10V21C63 22.1046 63.8954 23 65 23H95C96.1046 23 97 22.1046 97 21V10C97 8.89543 96.1046 8 95 8H65Z" fill="#27AB9E"/>
<path d="M71 15.5C71 16.3284 70.3284 17 69.5 17C68.6716 17 68 16.3284 68 15.5C68 14.6716 68.6716 14 69.5 14C70.3284 14 71 14.6716 71 15.5Z" fill="#27AB9E"/>
<path d="M76 15.5C76 16.3284 75.3284 17 74.5 17C73.6716 17 73 16.3284 73 15.5C73 14.6716 73.6716 14 74.5 14C75.3284 14 76 14.6716 76 15.5Z" fill="#27AB9E"/>
<path d="M81 15.5C81 16.3284 80.3284 17 79.5 17C78.6716 17 78 16.3284 78 15.5C78 14.6716 78.6716 14 79.5 14C80.3284 14 81 14.6716 81 15.5Z" fill="#27AB9E"/>
<path fill-rule="evenodd" clip-rule="evenodd" d="M86 9V23H85V9H86Z" fill="#27AB9E"/>
<path fill-rule="evenodd" clip-rule="evenodd" d="M89 9V23H88V9H89Z" fill="#27AB9E"/>
<path fill-rule="evenodd" clip-rule="evenodd" d="M92 9V23H91V9H92Z" fill="#27AB9E"/>
<path fill-rule="evenodd" clip-rule="evenodd" d="M95 59H65L65 70H95V59ZM65 57C63.8954 57 63 57.8954 63 59V70C63 71.1046 63.8954 72 65 72H95C96.1046 72 97 71.1046 97 70V59C97 57.8954 96.1046 57 95 57H65Z" fill="#27AB9E"/>
<path d="M71 64.5C71 65.3284 70.3284 66 69.5 66C68.6716 66 68 65.3284 68 64.5C68 63.6716 68.6716 63 69.5 63C70.3284 63 71 63.6716 71 64.5Z" fill="#27AB9E"/>
<path d="M76 64.5C76 65.3284 75.3284 66 74.5 66C73.6716 66 73 65.3284 73 64.5C73 63.6716 73.6716 63 74.5 63C75.3284 63 76 63.6716 76 64.5Z" fill="#27AB9E"/>
<path d="M81 64.5C81 65.3284 80.3284 66 79.5 66C78.6716 66 78 65.3284 78 64.5C78 63.6716 78.6716 63 79.5 63C80.3284 63 81 63.6716 81 64.5Z" fill="#27AB9E"/>
<path fill-rule="evenodd" clip-rule="evenodd" d="M86 58V72H85V58H86Z" fill="#27AB9E"/>
<path fill-rule="evenodd" clip-rule="evenodd" d="M89 58V72H88V58H89Z" fill="#27AB9E"/>
<path fill-rule="evenodd" clip-rule="evenodd" d="M92 58V72H91V58H92Z" fill="#27AB9E"/>
<path fill-rule="evenodd" clip-rule="evenodd" d="M139 59H109L109 70H139V59ZM109 57C107.895 57 107 57.8954 107 59V70C107 71.1046 107.895 72 109 72H139C140.105 72 141 71.1046 141 70V59C141 57.8954 140.105 57 139 57H109Z" fill="#27AB9E"/>
<path d="M115 64.5C115 65.3284 114.328 66 113.5 66C112.672 66 112 65.3284 112 64.5C112 63.6716 112.672 63 113.5 63C114.328 63 115 63.6716 115 64.5Z" fill="#27AB9E"/>
<path d="M120 64.5C120 65.3284 119.328 66 118.5 66C117.672 66 117 65.3284 117 64.5C117 63.6716 117.672 63 118.5 63C119.328 63 120 63.6716 120 64.5Z" fill="#27AB9E"/>
<path d="M125 64.5C125 65.3284 124.328 66 123.5 66C122.672 66 122 65.3284 122 64.5C122 63.6716 122.672 63 123.5 63C124.328 63 125 63.6716 125 64.5Z" fill="#27AB9E"/>
<path fill-rule="evenodd" clip-rule="evenodd" d="M130 58V72H129V58H130Z" fill="#27AB9E"/>
<path fill-rule="evenodd" clip-rule="evenodd" d="M133 58V72H132V58H133Z" fill="#27AB9E"/>
<path fill-rule="evenodd" clip-rule="evenodd" d="M136 58V72H135V58H136Z" fill="#27AB9E"/>
<path fill-rule="evenodd" clip-rule="evenodd" d="M51 59H21L21 70H51V59ZM21 57C19.8954 57 19 57.8954 19 59V70C19 71.1046 19.8954 72 21 72H51C52.1046 72 53 71.1046 53 70V59C53 57.8954 52.1046 57 51 57H21Z" fill="#27AB9E"/>
<path d="M27 64.5C27 65.3284 26.3284 66 25.5 66C24.6716 66 24 65.3284 24 64.5C24 63.6716 24.6716 63 25.5 63C26.3284 63 27 63.6716 27 64.5Z" fill="#27AB9E"/>
<path d="M32 64.5C32 65.3284 31.3284 66 30.5 66C29.6716 66 29 65.3284 29 64.5C29 63.6716 29.6716 63 30.5 63C31.3284 63 32 63.6716 32 64.5Z" fill="#27AB9E"/>
<path d="M37 64.5C37 65.3284 36.3284 66 35.5 66C34.6716 66 34 65.3284 34 64.5C34 63.6716 34.6716 63 35.5 63C36.3284 63 37 63.6716 37 64.5Z" fill="#27AB9E"/>
<path fill-rule="evenodd" clip-rule="evenodd" d="M42 58V72H41V58H42Z" fill="#27AB9E"/>
<path fill-rule="evenodd" clip-rule="evenodd" d="M45 58V72H44V58H45Z" fill="#27AB9E"/>
<path fill-rule="evenodd" clip-rule="evenodd" d="M48 58V72H47V58H48Z" fill="#27AB9E"/>
<path fill-rule="evenodd" clip-rule="evenodd" d="M79 53L79 27L81 27L81 53L79 53Z" fill="#27AB9E"/>
<path d="M83 28C83 29.6569 81.6569 31 80 31C78.3431 31 77 29.6569 77 28C77 26.3431 78.3431 25 80 25C81.6569 25 83 26.3431 83 28Z" fill="white"/>
<path fill-rule="evenodd" clip-rule="evenodd" d="M80 30C81.1046 30 82 29.1046 82 28C82 26.8954 81.1046 26 80 26C78.8954 26 78 26.8954 78 28C78 29.1046 78.8954 30 80 30ZM80 31C81.6569 31 83 29.6569 83 28C83 26.3431 81.6569 25 80 25C78.3431 25 77 26.3431 77 28C77 29.6569 78.3431 31 80 31Z" fill="#27AB9E"/>
<path d="M83 52C83 53.6569 81.6569 55 80 55C78.3431 55 77 53.6569 77 52C77 50.3431 78.3431 49 80 49C81.6569 49 83 50.3431 83 52Z" fill="white"/>
<path fill-rule="evenodd" clip-rule="evenodd" d="M80 54C81.1046 54 82 53.1046 82 52C82 50.8954 81.1046 50 80 50C78.8954 50 78 50.8954 78 52C78 53.1046 78.8954 54 80 54ZM80 55C81.6569 55 83 53.6569 83 52C83 50.3431 81.6569 49 80 49C78.3431 49 77 50.3431 77 52C77 53.6569 78.3431 55 80 55Z" fill="#27AB9E"/>
<path fill-rule="evenodd" clip-rule="evenodd" d="M122 41L38 41C37.4477 41 37 41.4477 37 42L37 53L35 53L35 42C35 40.3432 36.3431 39 38 39L122 39C123.657 39 125 40.3432 125 42L125 53L123 53L123 42C123 41.4477 122.552 41 122 41Z" fill="#27AB9E"/>
<path d="M39 52C39 53.6569 37.6569 55 36 55C34.3431 55 33 53.6569 33 52C33 50.3431 34.3431 49 36 49C37.6569 49 39 50.3431 39 52Z" fill="white"/>
<path fill-rule="evenodd" clip-rule="evenodd" d="M36 54C37.1046 54 38 53.1046 38 52C38 50.8954 37.1046 50 36 50C34.8954 50 34 50.8954 34 52C34 53.1046 34.8954 54 36 54ZM36 55C37.6569 55 39 53.6569 39 52C39 50.3431 37.6569 49 36 49C34.3431 49 33 50.3431 33 52C33 53.6569 34.3431 55 36 55Z" fill="#27AB9E"/>
<path d="M127 52C127 53.6569 125.657 55 124 55C122.343 55 121 53.6569 121 52C121 50.3431 122.343 49 124 49C125.657 49 127 50.3431 127 52Z" fill="white"/>
<path fill-rule="evenodd" clip-rule="evenodd" d="M124 54C125.105 54 126 53.1046 126 52C126 50.8954 125.105 50 124 50C122.895 50 122 50.8954 122 52C122 53.1046 122.895 54 124 54ZM124 55C125.657 55 127 53.6569 127 52C127 50.3431 125.657 49 124 49C122.343 49 121 50.3431 121 52C121 53.6569 122.343 55 124 55Z" fill="#27AB9E"/>
</svg>
