<svg width="160" height="80" viewBox="0 0 160 80" fill="none" xmlns="http://www.w3.org/2000/svg">
<path d="M22 40L138 40" stroke="#27AB9E" stroke-dasharray="2 2"/>
<path d="M22 48L138 48" stroke="#27AB9E" stroke-dasharray="2 2"/>
<path d="M22 32L138 32" stroke="#27AB9E" stroke-dasharray="2 2"/>
<path d="M22 24L138 24" stroke="#27AB9E" stroke-dasharray="2 2"/>
<path d="M22 56L138 56" stroke="#27AB9E" stroke-dasharray="2 2"/>
<path d="M60.1816 57.9123C61.2769 58.8249 60.1816 69.9996 60.1816 69.9996H72.2689C72.2689 69.9996 75.089 52.2398 70.2544 47.0337C65.0163 41.3931 56.5552 30.1116 55.3464 36.4572C50.1086 19.636 52.5261 7.95153 48.4972 9.96592C45.5916 11.4187 47.7006 29.4594 45.6768 40.5871C44.8708 45.0193 57.7641 55.8979 60.1816 57.9123Z" fill="white"/>
<path d="M55.3464 36.4572C50.1086 19.636 52.5261 7.95153 48.4972 9.96592C45.5916 11.4187 47.7006 29.4594 45.6768 40.5871C44.8708 45.0193 57.7641 55.8979 60.1816 57.9123C61.2769 58.8249 60.1816 69.9996 60.1816 69.9996H72.2689C72.2689 69.9996 75.089 52.2398 70.2544 47.0337C65.0163 41.3931 56.5552 30.1116 55.3464 36.4572ZM55.3464 36.4572C54.1377 40.1844 60.5843 47.8397 60.5843 47.8397" stroke="#27AB9E" stroke-width="2"/>
<path d="M60.584 62.3447H73.0742" stroke="#27AB9E" stroke-width="2"/>
<path d="M99.2754 57.9123C98.1802 58.8249 99.2754 69.9996 99.2754 69.9996H87.1881C87.1881 69.9996 84.368 52.2398 89.2027 47.0337C94.4408 41.3931 102.902 30.1116 104.111 36.4572C109.348 19.636 106.931 7.95153 110.96 9.96592C113.865 11.4187 111.756 29.4594 113.78 40.5871C114.586 45.0193 101.693 55.8979 99.2754 57.9123Z" fill="white"/>
<path d="M104.111 36.4572C109.348 19.636 106.931 7.95153 110.96 9.96592C113.865 11.4187 111.756 29.4594 113.78 40.5871C114.586 45.0193 101.693 55.8979 99.2754 57.9123C98.1802 58.8249 99.2754 69.9996 99.2754 69.9996H87.1881C87.1881 69.9996 84.368 52.2398 89.2027 47.0337C94.4408 41.3931 102.902 30.1116 104.111 36.4572ZM104.111 36.4572C105.319 40.1844 98.8728 47.8397 98.8728 47.8397" stroke="#27AB9E" stroke-width="2"/>
<path d="M98.873 62.3447H86.3828" stroke="#27AB9E" stroke-width="2"/>
<path d="M95.2442 26.9422L79.5042 43.5465C77.0019 40.907 74.4987 38.2685 71.9957 35.6301L71.9926 35.6268C69.2466 32.7322 66.5006 29.8378 63.7558 26.9422C60.0814 23.0661 60.0814 16.7606 63.7558 12.8844C67.4015 9.03853 73.289 9.03853 76.9347 12.8844L78.7743 14.825L79.5 15.5906L80.2257 14.825L82.0653 12.8844C85.711 9.03853 91.5985 9.03853 95.2442 12.8844C98.9186 16.7606 98.9186 23.0661 95.2442 26.9422Z" fill="white" stroke="#27AB9E" stroke-width="2"/>
</svg>
