<svg width="160" height="80" viewBox="0 0 160 80" fill="none" xmlns="http://www.w3.org/2000/svg">
<path d="M32 56C30.8954 56 30 55.1046 30 54L30 14C30 12.8954 30.8954 12 32 12L90 12C91.1046 12 92 12.8954 92 14L92 54C92 55.1046 91.1046 56 90 56L32 56Z" fill="white"/>
<path fill-rule="evenodd" clip-rule="evenodd" d="M32 14L32 54L90 54L90 14L32 14ZM30 54C30 55.1046 30.8954 56 32 56L90 56C91.1046 56 92 55.1046 92 54L92 14C92 12.8954 91.1046 12 90 12L32 12C30.8954 12 30 12.8954 30 14L30 54Z" fill="#27AB9E"/>
<path fill-rule="evenodd" clip-rule="evenodd" d="M22.5 65.5002L52 65.5001L52 67.5001L22.5 67.5002C20.8431 67.5002 19.5 66.157 19.5 64.5002L19.5 58.4144L17.7071 60.2073L16.2929 58.793L20.5 54.5859L24.7071 58.793L23.2929 60.2073L21.5 58.4144L21.5 64.5002C21.5 65.0524 21.9477 65.5002 22.5 65.5002Z" fill="#27AB9E"/>
<path fill-rule="evenodd" clip-rule="evenodd" d="M133.5 13.9998L104 13.9999L104 11.9999L133.5 11.9998C135.157 11.9998 136.5 13.343 136.5 14.9998L136.5 21.0856L138.293 19.2927L139.707 20.707L135.5 24.9141L131.293 20.707L132.707 19.2927L134.5 21.0856L134.5 14.9998C134.5 14.4476 134.052 13.9998 133.5 13.9998Z" fill="#27AB9E"/>
<path d="M66 68C64.8954 68 64 67.1046 64 66L64 26C64 24.8954 64.8954 24 66 24L124 24C125.105 24 126 24.8954 126 26L126 66C126 67.1046 125.105 68 124 68L66 68Z" fill="white"/>
<path fill-rule="evenodd" clip-rule="evenodd" d="M66 26L66 66L124 66L124 26L66 26ZM64 66C64 67.1046 64.8954 68 66 68L124 68C125.105 68 126 67.1046 126 66L126 26C126 24.8954 125.105 24 124 24L66 24C64.8954 24 64 24.8954 64 26L64 66Z" fill="#27AB9E"/>
<path d="M70 64C68.8954 64 68 63.1046 68 62L68 37C68 35.8954 68.8954 35 70 35L78 35C79.1046 35 80 35.8954 80 37L80 62C80 63.1046 79.1046 64 78 64L70 64Z" fill="white"/>
<path fill-rule="evenodd" clip-rule="evenodd" d="M69 37L69 62C69 62.5523 69.4477 63 70 63L78 63C78.5523 63 79 62.5523 79 62L79 37C79 36.4477 78.5523 36 78 36L70 36C69.4477 36 69 36.4477 69 37ZM68 62C68 63.1046 68.8954 64 70 64L78 64C79.1046 64 80 63.1046 80 62L80 37C80 35.8954 79.1046 35 78 35L70 35C68.8954 35 68 35.8954 68 37L68 62Z" fill="#27AB9E"/>
<path d="M84 64C82.8954 64 82 63.1046 82 62L82 37C82 35.8954 82.8954 35 84 35L120 35C121.105 35 122 35.8954 122 37L122 62C122 63.1046 121.105 64 120 64L84 64Z" fill="white"/>
<path fill-rule="evenodd" clip-rule="evenodd" d="M83 37L83 62C83 62.5523 83.4477 63 84 63L120 63C120.552 63 121 62.5523 121 62L121 37C121 36.4477 120.552 36 120 36L84 36C83.4477 36 83 36.4477 83 37ZM82 62C82 63.1046 82.8954 64 84 64L120 64C121.105 64 122 63.1046 122 62L122 37C122 35.8954 121.105 35 120 35L84 35C82.8954 35 82 35.8954 82 37L82 62Z" fill="#27AB9E"/>
<path fill-rule="evenodd" clip-rule="evenodd" d="M126 33H65V32H126V33Z" fill="#27AB9E"/>
<path fill-rule="evenodd" clip-rule="evenodd" d="M92 21H31V20H92V21Z" fill="#27AB9E"/>
<path d="M122 29C122 29.5523 121.552 30 121 30C120.448 30 120 29.5523 120 29C120 28.4477 120.448 28 121 28C121.552 28 122 28.4477 122 29Z" fill="#27AB9E"/>
<path d="M88 17C88 17.5523 87.5523 18 87 18C86.4477 18 86 17.5523 86 17C86 16.4477 86.4477 16 87 16C87.5523 16 88 16.4477 88 17Z" fill="#27AB9E"/>
<path d="M118 29C118 29.5523 117.552 30 117 30C116.448 30 116 29.5523 116 29C116 28.4477 116.448 28 117 28C117.552 28 118 28.4477 118 29Z" fill="#27AB9E"/>
<path d="M84 17C84 17.5523 83.5523 18 83 18C82.4477 18 82 17.5523 82 17C82 16.4477 82.4477 16 83 16C83.5523 16 84 16.4477 84 17Z" fill="#27AB9E"/>
<path d="M114 29C114 29.5523 113.552 30 113 30C112.448 30 112 29.5523 112 29C112 28.4477 112.448 28 113 28C113.552 28 114 28.4477 114 29Z" fill="#27AB9E"/>
<path d="M80 17C80 17.5523 79.5523 18 79 18C78.4477 18 78 17.5523 78 17C78 16.4477 78.4477 16 79 16C79.5523 16 80 16.4477 80 17Z" fill="#27AB9E"/>
</svg>
