<svg width="160" height="80" viewBox="0 0 160 80" fill="none" xmlns="http://www.w3.org/2000/svg">
<path d="M98 10C99.1046 10 100 10.8954 100 12L100 60C100 61.1046 99.1046 62 98 62L38 62C36.8954 62 36 61.1046 36 60L36 12C36 10.8954 36.8954 10 38 10L98 10Z" fill="white"/>
<path fill-rule="evenodd" clip-rule="evenodd" d="M98 60L98 12L38 12L38 60L98 60ZM100 12C100 10.8954 99.1046 10 98 10L38 10C36.8954 10 36 10.8954 36 12L36 60C36 61.1046 36.8954 62 38 62L98 62C99.1046 62 100 61.1046 100 60L100 12Z" fill="#27AB9E"/>
<path fill-rule="evenodd" clip-rule="evenodd" d="M55.1634 25.933H60.9089V24.1076C60.9089 22.89 61.9386 22 63.0817 22C64.2268 22 65.2545 22.8907 65.2545 24.1076V25.933H71V31.776H68.6843C67.6093 31.776 66.8341 32.5885 66.8341 33.4665C66.8341 34.3431 67.609 35.1558 68.6843 35.1558H71V41H64.9404V38.7563C64.9404 37.8778 64.1647 37.0658 63.0927 37.0658H63.0829C62.01 37.0658 61.2352 37.8775 61.2352 38.7563V41H55.1647V35.5741H53.1728C52.0292 35.5741 51.0006 34.6828 51 33.4675C50.9981 32.2485 52.0292 31.3589 53.1716 31.3589H55.1634V25.933ZM56.1634 31.3589V32.3589H53.1716C52.5253 32.3589 51.9988 32.855 52 33.4665C52 34.0768 52.5265 34.5741 53.1728 34.5741H55.1647M56.1647 40H60.2352V38.7563C60.2352 37.2726 61.5119 36.0658 63.0829 36.0658H63.0927C64.6626 36.0658 65.9404 37.2726 65.9404 38.7563V40H70V36.1558H68.6843C67.112 36.1558 65.8341 34.949 65.8341 33.4665C65.8341 31.9828 67.112 30.776 68.6843 30.776H70V26.933H64.2545V24.1076C64.2545 23.4961 63.7292 23 63.0817 23C62.4355 23 61.9089 23.4961 61.9089 24.1076V26.933H56.1634V31.3589" fill="#27AB9E"/>
<path d="M48 44C49.6569 44 51 45.3431 51 47C51 48.6569 49.6569 50 48 50C46.3431 50 45 48.6569 45 47C45 45.3431 46.3431 44 48 44Z" fill="white"/>
<path fill-rule="evenodd" clip-rule="evenodd" d="M48 45C46.8954 45 46 45.8954 46 47C46 48.1046 46.8954 49 48 49C49.1046 49 50 48.1046 50 47C50 45.8954 49.1046 45 48 45ZM51 47C51 45.3431 49.6569 44 48 44C46.3431 44 45 45.3431 45 47C45 48.6569 46.3431 50 48 50C49.6569 50 51 48.6569 51 47Z" fill="#27AB9E"/>
<path d="M85 22C86.6569 22 88 23.3431 88 25C88 26.6569 86.6569 28 85 28C83.3431 28 82 26.6569 82 25C82 23.3431 83.3431 22 85 22Z" fill="white"/>
<path fill-rule="evenodd" clip-rule="evenodd" d="M85 23C83.8954 23 83 23.8954 83 25C83 26.1046 83.8954 27 85 27C86.1046 27 87 26.1046 87 25C87 23.8954 86.1046 23 85 23ZM88 25C88 23.3431 86.6569 22 85 22C83.3431 22 82 23.3431 82 25C82 26.6569 83.3431 28 85 28C86.6569 28 88 26.6569 88 25Z" fill="#27AB9E"/>
<path fill-rule="evenodd" clip-rule="evenodd" d="M79.019 42.2283C73.9254 45.6292 65.1683 47.5 50.5 47.5V46.5C65.1421 46.5 73.6349 44.6208 78.4637 41.3967C83.2269 38.2164 84.5 33.6695 84.5 28H85.5C85.5 33.8305 84.1783 38.7836 79.019 42.2283Z" fill="#27AB9E"/>
<path d="M101 10C102.105 10 103 10.8954 103 12L103 17C103 18.1046 102.105 19 101 19L35 19C33.8954 19 33 18.1046 33 17L33 12C33 10.8954 33.8954 10 35 10L101 10Z" fill="white"/>
<path fill-rule="evenodd" clip-rule="evenodd" d="M101 17L101 12L35 12L35 17L101 17ZM103 12C103 10.8954 102.105 10 101 10L35 10C33.8954 10 33 10.8954 33 12L33 17C33 18.1046 33.8954 19 35 19L101 19C102.105 19 103 18.1046 103 17L103 12Z" fill="#27AB9E"/>
<path d="M101 53C102.105 53 103 53.8954 103 55L103 60C103 61.1046 102.105 62 101 62L35 62C33.8954 62 33 61.1046 33 60L33 55C33 53.8954 33.8954 53 35 53L101 53Z" fill="white"/>
<path fill-rule="evenodd" clip-rule="evenodd" d="M101 60L101 55L35 55L35 60L101 60ZM103 55C103 53.8954 102.105 53 101 53L35 53C33.8954 53 33 53.8954 33 55L33 60C33 61.1046 33.8954 62 35 62L101 62C102.105 62 103 61.1046 103 60L103 55Z" fill="#27AB9E"/>
<path d="M124 32C125.105 32 126 32.8954 126 34L126 69C126 70.1046 125.105 71 124 71L96 71C94.8954 71 94 70.1046 94 69L94 34C94 32.8954 94.8954 32 96 32L124 32Z" fill="white"/>
<path fill-rule="evenodd" clip-rule="evenodd" d="M124 69L124 34L96 34L96 69L124 69ZM126 34C126 32.8954 125.105 32 124 32L96 32C94.8954 32 94 32.8954 94 34L94 69C94 70.1046 94.8954 71 96 71L124 71C125.105 71 126 70.1046 126 69L126 34Z" fill="#27AB9E"/>
<path fill-rule="evenodd" clip-rule="evenodd" d="M105.029 41.5304L100.499 46.0607L98.4688 44.0304L99.5294 42.9697L100.499 43.9394L103.969 40.4697L105.029 41.5304Z" fill="#27AB9E"/>
<path fill-rule="evenodd" clip-rule="evenodd" d="M121 44H107V43H121V44Z" fill="#27AB9E"/>
<path fill-rule="evenodd" clip-rule="evenodd" d="M105.029 49.5304L100.499 54.0607L98.4688 52.0304L99.5294 50.9697L100.499 51.9394L103.969 48.4697L105.029 49.5304Z" fill="#27AB9E"/>
<path fill-rule="evenodd" clip-rule="evenodd" d="M121 52H107V51H121V52Z" fill="#27AB9E"/>
<path fill-rule="evenodd" clip-rule="evenodd" d="M105.029 57.5304L100.499 62.0607L98.4688 60.0304L99.5294 58.9697L100.499 59.9394L103.969 56.4697L105.029 57.5304Z" fill="#27AB9E"/>
<path fill-rule="evenodd" clip-rule="evenodd" d="M121 60H107V59H121V60Z" fill="#27AB9E"/>
</svg>
