<svg width="160" height="80" viewBox="0 0 160 80" fill="none" xmlns="http://www.w3.org/2000/svg">
<path d="M22 60L138 60" stroke="#27AB9E" stroke-dasharray="2 2"/>
<path d="M22 47L138 47" stroke="#27AB9E" stroke-dasharray="2 2"/>
<path d="M22 34L138 34" stroke="#27AB9E" stroke-dasharray="2 2"/>
<rect x="104" y="22" width="51" height="10" rx="1" transform="rotate(90 104 22)" fill="white" stroke="#27AB9E" stroke-width="2"/>
<rect x="67" y="30" width="43" height="10" rx="1" transform="rotate(90 67 30)" fill="white" stroke="#27AB9E" stroke-width="2"/>
<rect x="86" y="39" width="34" height="10" rx="1" transform="rotate(90 86 39)" fill="white" stroke="#27AB9E" stroke-width="2"/>
<rect x="49" y="58" width="15" height="10" rx="1" transform="rotate(90 49 58)" fill="white" stroke="#27AB9E" stroke-width="2"/>
<rect x="123" y="13" width="60" height="10" rx="1" transform="rotate(90 123 13)" fill="white" stroke="#27AB9E" stroke-width="2"/>
<path d="M22 73L138 73" stroke="#27AB9E" stroke-width="2"/>
<path fill-rule="evenodd" clip-rule="evenodd" d="M138 60.5L137 60.5L137 59.5L138 59.5L138 60.5ZM135 60.5L133 60.5L133 59.5L135 59.5L135 60.5ZM131 60.5L129 60.5L129 59.5L131 59.5L131 60.5ZM127 60.5L125 60.5L125 59.5L127 59.5L127 60.5ZM123 60.5L121 60.5L121 59.5L123 59.5L123 60.5ZM119 60.5L117 60.5L117 59.5L119 59.5L119 60.5ZM115 60.5L113 60.5L113 59.5L115 59.5L115 60.5ZM111 60.5L109 60.5L109 59.5L111 59.5L111 60.5ZM107 60.5L105 60.5L105 59.5L107 59.5L107 60.5ZM103 60.5L101 60.5L101 59.5L103 59.5L103 60.5ZM99 60.5L97 60.5L97 59.5L99 59.5L99 60.5ZM95 60.5L93 60.5L93 59.5L95 59.5L95 60.5ZM91 60.5L89 60.5L89 59.5L91 59.5L91 60.5ZM87 60.5L85 60.5L85 59.5L87 59.5L87 60.5ZM83 60.5L81 60.5L81 59.5L83 59.5L83 60.5ZM79 60.5L77 60.5L77 59.5L79 59.5L79 60.5ZM75 60.5L73 60.5L73 59.5L75 59.5L75 60.5ZM71 60.5L69 60.5L69 59.5L71 59.5L71 60.5ZM67 60.5L65 60.5L65 59.5L67 59.5L67 60.5ZM63 60.5L61 60.5L61 59.5L63 59.5L63 60.5ZM59 60.5L57 60.5L57 59.5L59 59.5L59 60.5ZM55 60.5L53 60.5L53 59.5L55 59.5L55 60.5ZM51 60.5L49 60.5L49 59.5L51 59.5L51 60.5ZM47 60.5L45 60.5L45 59.5L47 59.5L47 60.5ZM43 60.5L41 60.5L41 59.5L43 59.5L43 60.5ZM39 60.5L37 60.5L37 59.5L39 59.5L39 60.5ZM35 60.5L33 60.5L33 59.5L35 59.5L35 60.5ZM31 60.5L29 60.5L29 59.5L31 59.5L31 60.5ZM27 60.5L25 60.5L25 59.5L27 59.5L27 60.5ZM23 60.5L22 60.5L22 59.5L23 59.5L23 60.5Z" fill="#27AB9E"/>
<path fill-rule="evenodd" clip-rule="evenodd" d="M138 47.5L137 47.5L137 46.5L138 46.5L138 47.5ZM135 47.5L133 47.5L133 46.5L135 46.5L135 47.5ZM131 47.5L129 47.5L129 46.5L131 46.5L131 47.5ZM127 47.5L125 47.5L125 46.5L127 46.5L127 47.5ZM123 47.5L121 47.5L121 46.5L123 46.5L123 47.5ZM119 47.5L117 47.5L117 46.5L119 46.5L119 47.5ZM115 47.5L113 47.5L113 46.5L115 46.5L115 47.5ZM111 47.5L109 47.5L109 46.5L111 46.5L111 47.5ZM107 47.5L105 47.5L105 46.5L107 46.5L107 47.5ZM103 47.5L101 47.5L101 46.5L103 46.5L103 47.5ZM99 47.5L97 47.5L97 46.5L99 46.5L99 47.5ZM95 47.5L93 47.5L93 46.5L95 46.5L95 47.5ZM91 47.5L89 47.5L89 46.5L91 46.5L91 47.5ZM87 47.5L85 47.5L85 46.5L87 46.5L87 47.5ZM83 47.5L81 47.5L81 46.5L83 46.5L83 47.5ZM79 47.5L77 47.5L77 46.5L79 46.5L79 47.5ZM75 47.5L73 47.5L73 46.5L75 46.5L75 47.5ZM71 47.5L69 47.5L69 46.5L71 46.5L71 47.5ZM67 47.5L65 47.5L65 46.5L67 46.5L67 47.5ZM63 47.5L61 47.5L61 46.5L63 46.5L63 47.5ZM59 47.5L57 47.5L57 46.5L59 46.5L59 47.5ZM55 47.5L53 47.5L53 46.5L55 46.5L55 47.5ZM51 47.5L49 47.5L49 46.5L51 46.5L51 47.5ZM47 47.5L45 47.5L45 46.5L47 46.5L47 47.5ZM43 47.5L41 47.5L41 46.5L43 46.5L43 47.5ZM39 47.5L37 47.5L37 46.5L39 46.5L39 47.5ZM35 47.5L33 47.5L33 46.5L35 46.5L35 47.5ZM31 47.5L29 47.5L29 46.5L31 46.5L31 47.5ZM27 47.5L25 47.5L25 46.5L27 46.5L27 47.5ZM23 47.5L22 47.5L22 46.5L23 46.5L23 47.5Z" fill="#27AB9E"/>
<path fill-rule="evenodd" clip-rule="evenodd" d="M138 34.5L137 34.5L137 33.5L138 33.5L138 34.5ZM135 34.5L133 34.5L133 33.5L135 33.5L135 34.5ZM131 34.5L129 34.5L129 33.5L131 33.5L131 34.5ZM127 34.5L125 34.5L125 33.5L127 33.5L127 34.5ZM123 34.5L121 34.5L121 33.5L123 33.5L123 34.5ZM119 34.5L117 34.5L117 33.5L119 33.5L119 34.5ZM115 34.5L113 34.5L113 33.5L115 33.5L115 34.5ZM111 34.5L109 34.5L109 33.5L111 33.5L111 34.5ZM107 34.5L105 34.5L105 33.5L107 33.5L107 34.5ZM103 34.5L101 34.5L101 33.5L103 33.5L103 34.5ZM99 34.5L97 34.5L97 33.5L99 33.5L99 34.5ZM95 34.5L93 34.5L93 33.5L95 33.5L95 34.5ZM91 34.5L89 34.5L89 33.5L91 33.5L91 34.5ZM87 34.5L85 34.5L85 33.5L87 33.5L87 34.5ZM83 34.5L81 34.5L81 33.5L83 33.5L83 34.5ZM79 34.5L77 34.5L77 33.5L79 33.5L79 34.5ZM75 34.5L73 34.5L73 33.5L75 33.5L75 34.5ZM71 34.5L69 34.5L69 33.5L71 33.5L71 34.5ZM67 34.5L65 34.5L65 33.5L67 33.5L67 34.5ZM63 34.5L61 34.5L61 33.5L63 33.5L63 34.5ZM59 34.5L57 34.5L57 33.5L59 33.5L59 34.5ZM55 34.5L53 34.5L53 33.5L55 33.5L55 34.5ZM51 34.5L49 34.5L49 33.5L51 33.5L51 34.5ZM47 34.5L45 34.5L45 33.5L47 33.5L47 34.5ZM43 34.5L41 34.5L41 33.5L43 33.5L43 34.5ZM39 34.5L37 34.5L37 33.5L39 33.5L39 34.5ZM35 34.5L33 34.5L33 33.5L35 33.5L35 34.5ZM31 34.5L29 34.5L29 33.5L31 33.5L31 34.5ZM27 34.5L25 34.5L25 33.5L27 33.5L27 34.5ZM23 34.5L22 34.5L22 33.5L23 33.5L23 34.5Z" fill="#27AB9E"/>
<path d="M103 21C104.105 21 105 21.8954 105 23L105 72C105 73.1046 104.105 74 103 74L95 74C93.8954 74 93 73.1046 93 72L93 23C93 21.8954 93.8954 21 95 21L103 21Z" fill="white"/>
<path fill-rule="evenodd" clip-rule="evenodd" d="M103 72L103 23L95 23L95 72L103 72ZM105 23C105 21.8954 104.105 21 103 21L95 21C93.8954 21 93 21.8954 93 23L93 72C93 73.1046 93.8954 74 95 74L103 74C104.105 74 105 73.1046 105 72L105 23Z" fill="#27AB9E"/>
<path d="M66 29C67.1046 29 68 29.8954 68 31L68 72C68 73.1046 67.1046 74 66 74L58 74C56.8954 74 56 73.1046 56 72L56 31C56 29.8954 56.8954 29 58 29L66 29Z" fill="white"/>
<path fill-rule="evenodd" clip-rule="evenodd" d="M66 72L66 31L58 31L58 72L66 72ZM68 31C68 29.8954 67.1046 29 66 29L58 29C56.8954 29 56 29.8954 56 31L56 72C56 73.1046 56.8954 74 58 74L66 74C67.1046 74 68 73.1046 68 72L68 31Z" fill="#27AB9E"/>
<path d="M85 38C86.1046 38 87 38.8954 87 40L87 72C87 73.1046 86.1046 74 85 74L77 74C75.8954 74 75 73.1046 75 72L75 40C75 38.8954 75.8954 38 77 38L85 38Z" fill="white"/>
<path fill-rule="evenodd" clip-rule="evenodd" d="M85 72L85 40L77 40L77 72L85 72ZM87 40C87 38.8954 86.1046 38 85 38L77 38C75.8954 38 75 38.8954 75 40L75 72C75 73.1046 75.8954 74 77 74L85 74C86.1046 74 87 73.1046 87 72L87 40Z" fill="#27AB9E"/>
<path d="M48 57C49.1046 57 50 57.8954 50 59L50 72C50 73.1046 49.1046 74 48 74L40 74C38.8954 74 38 73.1046 38 72L38 59C38 57.8954 38.8954 57 40 57L48 57Z" fill="white"/>
<path fill-rule="evenodd" clip-rule="evenodd" d="M48 72L48 59L40 59L40 72L48 72ZM50 59C50 57.8954 49.1046 57 48 57L40 57C38.8954 57 38 57.8954 38 59L38 72C38 73.1046 38.8954 74 40 74L48 74C49.1046 74 50 73.1046 50 72L50 59Z" fill="#27AB9E"/>
<path d="M122 7C123.105 7 124 7.89543 124 9L124 72C124 73.1046 123.105 74 122 74L114 74C112.895 74 112 73.1046 112 72L112 9C112 7.89543 112.895 7 114 7L122 7Z" fill="white"/>
<path fill-rule="evenodd" clip-rule="evenodd" d="M122 72L122 9L114 9L114 72L122 72ZM124 9C124 7.89543 123.105 7 122 7L114 7C112.895 7 112 7.89543 112 9L112 72C112 73.1046 112.895 74 114 74L122 74C123.105 74 124 73.1046 124 72L124 9Z" fill="#27AB9E"/>
<path fill-rule="evenodd" clip-rule="evenodd" d="M138 74L22 74L22 72L138 72L138 74Z" fill="#27AB9E"/>
</svg>
