<svg width="120" height="48" viewBox="0 0 120 48" fill="none" xmlns="http://www.w3.org/2000/svg">
<path d="M20.28 11.12C20.2533 14.1067 19.2 16.6267 17.12 18.68C15.0667 20.7333 12.5467 21.76 9.56 21.76H6.2V32H0.76V0.36L9.6 0.399999C12.6133 0.426665 15.1467 1.48 17.2 3.56C19.28 5.61333 20.3067 8.13333 20.28 11.12ZM14.88 11.08C14.9067 9.58667 14.4 8.34666 13.36 7.36C12.3467 6.34666 11.0933 5.82667 9.6 5.8L6.16 5.76V16.36H9.56C11.0533 16.36 12.3067 15.8533 13.32 14.84C14.3333 13.8267 14.8533 12.5733 14.88 11.08ZM42.3041 6.64C42.3041 7.54667 41.9974 8.32 41.3841 8.96C40.7707 9.57333 40.0107 9.88 39.1041 9.88C38.1974 9.88 37.4241 9.57333 36.7841 8.96C36.1707 8.32 35.8641 7.54667 35.8641 6.64C35.8641 5.73333 36.1707 4.97333 36.7841 4.36C37.4241 3.74666 38.1974 3.44 39.1041 3.44C39.9841 3.44 40.7307 3.76 41.3441 4.4C41.9841 5.01333 42.3041 5.76 42.3041 6.64ZM41.8241 32H36.4241V11.24H41.8241V32ZM62.7081 29.6C60.6281 31.6 58.1615 32.6 55.3081 32.6C52.2948 32.6 49.7481 31.5733 47.6681 29.52C45.6148 27.44 44.5881 24.8933 44.5881 21.88C44.5881 18.8933 45.6281 16.3733 47.7081 14.32C49.7881 12.24 52.3215 11.2 55.3081 11.2C58.0281 11.2 60.4015 12.12 62.4281 13.96L59.1881 18.32C58.1481 17.1733 56.8548 16.6 55.3081 16.6C53.8415 16.6 52.5881 17.12 51.5481 18.16C50.5081 19.1733 49.9881 20.4133 49.9881 21.88C49.9881 23.3467 50.5081 24.6 51.5481 25.64C52.5881 26.68 53.8415 27.2 55.3081 27.2C56.9081 27.2 58.2281 26.5867 59.2681 25.36L62.7081 29.6ZM71.2494 6.64C71.2494 7.54667 70.9427 8.32 70.3294 8.96C69.716 9.57333 68.956 9.88 68.0494 9.88C67.1427 9.88 66.3694 9.57333 65.7294 8.96C65.116 8.32 64.8094 7.54667 64.8094 6.64C64.8094 5.73333 65.116 4.97333 65.7294 4.36C66.3694 3.74666 67.1427 3.44 68.0494 3.44C68.9294 3.44 69.676 3.76 70.2894 4.4C70.9294 5.01333 71.2494 5.76 71.2494 6.64ZM70.7694 32H65.3694V11.24H70.7694V32ZM94.9734 32H89.5734L89.5334 21.88C89.5334 20.44 89.0134 19.2 87.9734 18.16C86.9334 17.12 85.6934 16.6 84.2534 16.6C82.7868 16.6 81.5334 17.12 80.4934 18.16C79.4534 19.1733 78.9334 20.4133 78.9334 21.88V32H73.5334V21.88C73.5334 18.8933 74.5734 16.3733 76.6534 14.32C78.7334 12.24 81.2668 11.2 84.2534 11.2C87.2401 11.2 89.7734 12.24 91.8534 14.32C93.9334 16.3733 94.9734 18.8933 94.9734 21.88V32ZM119.192 37.32C119.192 41.16 117.619 44.12 114.472 46.2C112.659 47.4 110.672 48 108.512 48C104.726 48 101.766 46.4133 99.6322 43.24C98.4055 41.4 97.7922 39.4267 97.7922 37.32C97.7922 35.9333 98.0589 34.6 98.5922 33.32L103.592 35.32C103.326 35.96 103.192 36.6267 103.192 37.32C103.192 38.7867 103.712 40.0267 104.752 41.04C105.792 42.08 107.046 42.6 108.512 42.6C109.952 42.6 111.192 42.08 112.232 41.04C113.272 40 113.792 38.76 113.792 37.32C113.792 34.9733 112.686 33.3333 110.472 32.4C109.806 32.5333 109.139 32.6 108.472 32.6C105.459 32.6 102.912 31.5733 100.832 29.52C98.7789 27.44 97.7522 24.8933 97.7522 21.88C97.7522 18.8933 98.7922 16.3733 100.872 14.32C102.952 12.24 105.486 11.2 108.472 11.2L111.592 3.8L115.832 5.6L113.032 12.24C114.899 13.1467 116.379 14.4667 117.472 16.2C118.592 17.9333 119.152 19.8267 119.152 21.88C119.152 24.92 118.059 27.48 115.872 29.56C118.086 31.6667 119.192 34.2533 119.192 37.32ZM113.752 21.88C113.752 20.44 113.232 19.2 112.192 18.16C111.152 17.12 109.912 16.6 108.472 16.6C107.006 16.6 105.752 17.12 104.712 18.16C103.672 19.1733 103.152 20.4133 103.152 21.88C103.152 23.3467 103.672 24.6 104.712 25.64C105.752 26.68 107.006 27.2 108.472 27.2C109.939 27.2 111.179 26.68 112.192 25.64C113.232 24.6 113.752 23.3467 113.752 21.88Z" fill="#1A2423"/>
<path d="M33.7456 16.6C32.279 16.6 31.0256 17.12 29.9856 18.16C28.9456 19.1733 28.4256 20.4133 28.4256 21.88V32H23.0256V21.88C23.0256 18.8933 24.0656 16.3733 26.1456 14.32C28.2256 12.24 30.759 11.2 33.7456 11.2V16.6Z" fill="white"/>
</svg>
