<svg width="229" height="246" viewBox="0 0 229 246" fill="none" xmlns="http://www.w3.org/2000/svg">
<path fill-rule="evenodd" clip-rule="evenodd" d="M173.69 0.575001C170.139 -0.562528 165.589 -0.105868 162.454 2.78947C159.304 0.0201247 154.912 -0.588551 151.296 0.575728C143.049 3.22618 140.508 12.7247 142.809 19.8943C144.66 25.6457 148.652 29.8949 152.513 32.6832C154.452 34.0829 156.394 35.1421 158.088 35.858C159.718 36.5467 161.312 37 162.504 37C163.703 37 165.307 36.5352 166.941 35.8385C168.642 35.1132 170.593 34.043 172.536 32.6365C176.402 29.8377 180.399 25.5877 182.196 19.8875C184.493 12.7151 181.931 3.22376 173.69 0.575001ZM170.006 7.83502C168.933 7.72493 167.973 8.50436 167.863 9.57593C167.753 10.6475 168.533 11.6054 169.607 11.7155C170.294 11.7859 170.758 12.0712 171.064 12.4569C171.382 12.8586 171.63 13.5045 171.599 14.4338C171.563 15.5104 172.408 16.4125 173.486 16.4486C174.565 16.4847 175.468 15.6413 175.504 14.5647C175.561 12.8784 175.116 11.2833 174.129 10.0373C173.129 8.77542 171.678 8.00644 170.006 7.83502Z" fill="url(#paint0_linear_3663_5575)"/>
<path d="M187.688 108.859C187.634 128.991 187.572 151.684 173.955 174.416C124.924 248.419 35.4963 183.069 45.0275 146.784C47.9904 138.954 54.4146 135.287 61.0777 134.701L61.0799 134.714C61.1418 134.704 61.2037 134.695 61.2654 134.685C63.7854 134.485 66.3353 134.724 68.7409 135.343C72.3326 136.564 75.3973 138.98 77.9916 141.711C79.291 143.29 80.569 145.013 81.8918 146.796C82.3033 147.351 82.7191 147.911 83.1412 148.475C84.4061 150.476 85.9853 152.566 88.2172 154.776C91.3298 158.245 94.9817 161.477 99.6632 163.852C102.592 165.472 105.677 166.597 108.765 167.293C116.522 169.61 123.051 168.974 128.435 166.627C143.05 161.861 152.619 139.834 150.534 115.564C149.849 78.8076 123.419 54.0038 94.1852 46.459C92.3305 45.9406 90.4639 45.5076 88.5899 45.1572C85.079 44.4728 81.7002 44.0886 78.5313 43.9342C77.8476 43.8109 77.1582 43.6922 76.4632 43.5781C-8.53896 43.5772 -25.5418 164.577 39.9632 220.578C86.0802 260.004 184.115 257.812 217.925 179.724C229.866 156.948 229.109 132.594 227.905 93.8479C227.765 89.3343 227.618 84.6253 227.485 79.7008V46.5783C219.287 46.4522 204.082 50.1252 194.744 63.7089C193.834 64.9112 192.994 66.1888 192.238 67.5451C188.991 71.7386 185.806 80.5968 187.757 100.017C187.704 102.901 187.696 105.85 187.688 108.857V108.859Z" fill="url(#paint1_linear_3663_5575)"/>
<defs>
<linearGradient id="paint0_linear_3663_5575" x1="114.271" y1="0" x2="114.271" y2="245.724" gradientUnits="userSpaceOnUse">
<stop stop-color="#27AB9E"/>
<stop offset="1" stop-color="#60EEAA"/>
</linearGradient>
<linearGradient id="paint1_linear_3663_5575" x1="114.271" y1="0" x2="114.271" y2="245.724" gradientUnits="userSpaceOnUse">
<stop stop-color="#27AB9E"/>
<stop offset="1" stop-color="#60EEAA"/>
</linearGradient>
</defs>
</svg>
